<svg xmlns="http://www.w3.org/2000/svg" viewBox="0 0 420.09 420.4"><defs><style>.cls-1{fill:#fbb03b;}</style></defs><g id="Layer_2" data-name="Layer 2"><g id="Layer_1-2" data-name="Layer 1"><path class="cls-1" d="M133.24,139l0,0a24.86,24.86,0,0,0-2.87,2.62c28.14-54.71,98.48-75,153.19-51.58,42.2,17.19,73.47,54.71,86,98.48,29.7,101.6-48.46,204.77-151.62,217.28-68.12,7.74-136.24-18.25-178.54-70.38a.18.18,0,0,1,.26-.25c46.59,40,102.36,67.44,165.77,61.25,65.65-6.25,125.05-50,146.94-112.55,20.32-59.4,6.25-126.62-46.9-165.69-40.64-28.14-93.79-34.39-135.22-9.4C150.3,121.33,138.12,133.62,133.24,139Z"/><path class="cls-1" d="M388.86,97.22c-.61-.73-9.89-11.92-17-18.36-.54-.51-1.09-1-1.61-1.41-49.14-43-114.12-63.09-180.51-48.33-84.41,20.32-145.38,100-128.18,187.57,10.94,51.59,43.77,92.23,93.79,107.86,51.1,15.49,102.18-5.84,136.57-44.22a.18.18,0,0,1,.3.2c-22.23,41.41-71.72,65.86-119.68,61.22-61-6.26-109.42-54.71-123.49-114.11C35,165.11,56.88,102.58,105.34,60.38c65.65-56.28,161-61,231-13.6,19.53,13.44,32,24.54,38.25,31.31.63.67,1.24,1.36,1.82,2s1.14,1.28,1.68,1.92c.15.16.27.32.41.47A88,88,0,0,1,388.86,97.22Z"/><path class="cls-1" d="M91.3,327.4c67.19,56.55,181.3,42.48,223.5-38.8,26.31-51.07,12.78-111.34-25.42-152a.18.18,0,0,1,.23-.27c50.48,34.8,65.55,109,34.57,163.19-50,89.1-173.51,100-247,34.39C17.8,282.35.61,201.06,24.05,129.16a195.84,195.84,0,0,1,75.68-100,.18.18,0,0,1,.22.28C23.49,95.63-5,219.06,64.48,301.09A173.38,173.38,0,0,0,91.3,327.4Z"/><path class="cls-1" d="M203.25,48.94c94.36-19.82,186.58,55.21,200.65,147.43,9.25,63.19-10.37,124.85-52.87,170a.18.18,0,0,1-.28-.23c45.78-63.88,65.17-150.29,21.89-222.93-28.14-46.9-75-78.16-129.74-82.85-50-3.13-98.48,17.19-128.18,59.4C72.93,178.59,92.43,257.31,149,295.28a.18.18,0,0,1-.17.31C98.36,273.11,69.54,216,81.89,160.42A147,147,0,0,1,164.13,61,161.53,161.53,0,0,1,203.25,48.94Z"/><path class="cls-1" d="M213.3,104.08h0c-1.66.07-4.78.07-3.22.07,40.64-12.51,86,4.69,114.11,35.95,28.14,32.83,39.08,73.47,32.83,115.67C347.63,312.05,308.55,358.94,257,379.26c-54.71,21.89-115.67,15.64-167.25-17.19C23.07,318.68-11.3,240,3.34,164a.18.18,0,0,1,.35,0c-1.12,68.13,19.4,137.52,79.76,180.85,56.28,40.65,125.06,45.34,184.46,14.07,48.45-26.57,79.72-79.72,76.59-134.43-3.13-48.46-35.95-98.48-84.33-112.9C237.55,105.14,220.36,104.2,213.3,104.08Z"/><path class="cls-1" d="M420,224.39s0,0,0,0a8,8,0,0,0-.46,3.21C410.15,137,344.5,52.56,249.15,43.18,172.55,35.37,96,83.83,78.76,162c-10.94,50,7.82,100,48.46,131.31,29.37,23.19,64.86,23.44,98.9,21.94a.18.18,0,0,1,.07.35c-40.39,15.06-86.75,5.6-119.29-22.29C50.63,243.27,47.5,162,89.71,101,142.85,24.43,246,8.79,324.18,55.69c43.77,26.57,75,67.21,87.64,114.67C419,198.36,420.53,216.91,420,224.39Z"/><path class="cls-1" d="M45.08,218.13c8.67,39.21,27.43,75.16,61.82,100.17,45.33,32.83,100,37.52,148.5,9.38C297.13,303,319,258.35,318,210.51a.18.18,0,0,1,.35,0c10.12,41.79-7.05,87.89-39.47,117.22-34.39,29.7-79.72,37.52-125,28.14C75.64,337.06,25.62,260.46,28.74,183.87,33.39,72.3,144-14.69,252.54,2.07a.18.18,0,0,1,0,.36C150.25-.74,45.91,73.89,42.68,180.74A171.86,171.86,0,0,0,45.08,218.13Z"/><path class="cls-1" d="M321.74,92.88c47.77,31.59,71.22,91,69.66,147.26-4.67,101-98.91,186.56-199.84,179.9a.18.18,0,0,1,0-.36c76-9.79,150-50.4,176.4-126.39,25-70.34,4.69-151.63-61-193.83-43.77-26.58-93.79-29.7-139.13-6.26-48.05,26.36-68.44,80.39-61.15,131.59a.18.18,0,0,1-.34.1c-16.43-37.31-5.46-83.55,19.29-114.49C164.74,63.5,230.39,51,285.74,73.22A161.67,161.67,0,0,1,321.74,92.88Z"/></g></g></svg>