<?xml version="1.0" encoding="utf-8"?><!DOCTYPE svg PUBLIC "-//W3C//DTD SVG 1.1//EN" "http://www.w3.org/Graphics/SVG/1.1/DTD/svg11.dtd"><svg viewBox="0 0 2000 2000" xmlns="http://www.w3.org/2000/svg" xmlns:xlink="http://www.w3.org/1999/xlink"><style>:root>svg{display:none}:root>svg:target{display:block}</style><svg viewBox="0 0 24 24" id="arrow" xmlns="http://www.w3.org/2000/svg"><path d="M15 5.829L21.171 12 15 18.171V15H2V9h13V5.829zM13 1v6H0v10h13v6l11-11L13 1z"/></svg><svg viewBox="0 0 24 24" id="basket" xmlns="http://www.w3.org/2000/svg"><path d="M19.029 13H22l-.266 1h-2.992l.287-1zm.863-3h2.812L23 9h-2.821l-.287 1zm-.576 2h4.387L24 11h-4.396l-.288 1zM7.5 18a1.5 1.5 0 10.001 3.001A1.5 1.5 0 007.5 18zm6.5 1.5a1.5 1.5 0 11-3 0 1.5 1.5 0 013 0zM22 3l-.743 2h-1.929l-3.474 12H4.615L0 6h14.812l-2.541 9h2.102l3.432-12H22z"/></svg><svg viewBox="0 0 192.756 192.756" id="bla-hast" xmlns="http://www.w3.org/2000/svg"><g fill-rule="evenodd" clip-rule="evenodd"><path fill="#fff" d="M0 0h192.756v192.756H0V0z"/><path fill="#1e71b8" d="M38.537 110.641h15.804v-7.589h-7.212V86.996h-8.592v23.645zm29.129-31.014c-2.352 0-4.829.941-4.829 3.638 0 2.729 2.54 3.575 4.829 3.575s4.829-.847 4.829-3.575c0-2.697-2.477-3.638-4.829-3.638zm0 2.258c.878 0 1.85.345 1.85 1.349s-.972 1.349-1.85 1.349-1.85-.345-1.85-1.349.972-1.349 1.85-1.349zm-3.324 25.808h6.491l.784 2.947h9.094l-8.436-23.645h-9.502l-8.216 23.645h9.094l.691-2.947zm1.536-5.613l1.568-7.213h.314c.157 1.003.313 2.038.564 3.042l1.003 4.171h-3.449zm29.661 8.561h8.279v-8.216h5.268v8.216h8.279V86.996h-8.279v7.965h-5.268v-7.965h-8.279v23.645zm32.863-31.014a2.597 2.597 0 00-2.602 2.603 2.597 2.597 0 002.602 2.603 2.598 2.598 0 002.604-2.603 2.596 2.596 0 00-2.604-2.603zm7.621 0a2.597 2.597 0 00-2.604 2.603 2.597 2.597 0 002.604 2.603 2.599 2.599 0 002.604-2.603 2.598 2.598 0 00-2.604-2.603zm-7.15 28.066h6.492l.783 2.947h9.094l-8.436-23.645h-9.502l-8.215 23.645h9.094l.69-2.947zm1.537-5.613l1.568-7.213h.312c.158 1.003.314 2.038.564 3.042l1.004 4.171h-3.448zm15.401 6.774c2.666 1.349 6.115 2.163 9.094 2.163 5.111 0 10.254-2.79 10.254-8.436 0-4.014-2.635-5.958-6.271-6.773l-1.945-.439c-.658-.157-1.725-.282-1.725-1.16 0-.973 1.098-1.254 1.852-1.254 1.85 0 3.512.784 4.986 1.788l2.32-6.053c-2.32-1.411-4.799-2.069-7.496-2.069-5.143 0-10.254 3.136-10.254 8.749 0 3.7 2.822 5.676 6.178 6.271l1.725.313c.783.157 1.914.251 1.914 1.317s-1.35 1.411-2.195 1.411c-1.977 0-3.826-.973-5.363-2.164l-.439-.345-2.635 6.681zm20.378-14.175l4.737-.219v16.181h8.592V94.46l4.734.219v-7.683h-18.063v7.683zM8.504 87.354v13.871c0 4.908 1.828 10.263 7.172 10.263 3.104 0 5.172-1.934 6.173-4.982h.207c.724 2.454 2.965 3.682 5.242 3.682 6 0 7.207-5.541 7.207-10.971V87.354H8.504zm16 9.445h3.724v.707c0 1.487.138 3.384-1.793 3.384-1.793 0-1.931-1.674-1.931-3.161v-.93zm-5.483 0v1.004c0 1.637.035 4.239-2.138 4.239-2.138 0-2.173-2.417-2.173-4.09v-1.153h4.311z"/></g></svg><svg viewBox="0 0 24 24" id="calendar" xmlns="http://www.w3.org/2000/svg"><path d="M20 20h-4v-4h4v4zm-6-10h-4v4h4v-4zm6 0h-4v4h4v-4zM8 16H4v4h4v-4zm6 0h-4v4h4v-4zm-6-6H4v4h4v-4zm16-8v22H0V2h3v1c0 1.103.897 2 2 2s2-.897 2-2V2h10v1c0 1.103.897 2 2 2s2-.897 2-2V2h3zm-2 6H2v14h20V8zm-2-7a1 1 0 10-2 0v2a1 1 0 102 0V1zM6 3a1 1 0 11-2 0V1a1 1 0 112 0v2z"/></svg><svg viewBox="0 0 24 24" id="check-mark" xmlns="http://www.w3.org/2000/svg"><path d="M21.856 10.303c.086.554.144 1.118.144 1.697 0 6.075-4.925 11-11 11S0 18.075 0 12 4.925 1 11 1c2.347 0 4.518.741 6.304 1.993L15.882 4.45A8.944 8.944 0 0011 3c-4.962 0-9 4.038-9 9s4.038 9 9 9c4.894 0 8.879-3.928 8.99-8.795l1.866-1.902zm-.952-8.136L11.5 11.806 7.657 8.192 4.562 11.29 11.5 18 24 5.263l-3.096-3.096z"/></svg><svg viewBox="0 0 53.76 13.2" id="clarion" xmlns="http://www.w3.org/2000/svg"><path d="M6.96 13.2c3.396-.148 6.11-2.877 6.3-6.3-1.476.025-3.632-.21-4.98 1.38-1.301 1.524-1.323 3.485-1.32 4.92zm0-13.2c3.396.142 6.11 2.87 6.3 6.24-1.476.029-3.632.263-4.98-1.32C6.979 3.39 6.957 1.429 6.96 0zM6.3 2.58c-2.062.187-3.683 1.913-3.66 4.02-.023 2.101 1.598 3.827 3.66 4.02v2.58C2.791 13.047-.001 10.147 0 6.6-.001 3.046 2.791.147 6.3 0v2.58z"/><path d="M6.3 4.8c-.845.151-1.528.9-1.5 1.8-.028.91.632 1.67 1.5 1.8v1.62A3.435 3.435 0 013.18 6.6 3.426 3.426 0 016.3 3.18V4.8z"/><path d="M6.3 5.34c-.576.121-.998.639-1.02 1.26.022.616.447 1.136 1.02 1.26V5.34zM24.18 2.1h1.62v8.761h-1.62zm13.74 2.22h1.62v6.54h-1.62zm.78-.48a.977.977 0 001.02-.96 1.042 1.042 0 00-1.02-1.02.988.988 0 00-.96 1.02.925.925 0 00.96.96zm-17.64.96c-.353-1.063-1.038-1.782-1.8-1.8-1.194.018-2.144 1.62-2.16 3.6.017 1.975.966 3.577 2.16 3.601.83-.023 1.565-.872 1.92-2.101h2.04c-.279 1.966-2.047 3.27-3.96 3.24-2.438.03-4.397-2.107-4.38-4.74-.018-2.639 1.941-4.775 4.38-4.8 1.816.024 3.493 1.117 3.84 3h-2.04zM51 3.96c1.55.012 2.761.621 2.76 2.1v4.801h-1.62V6.06c-.02-.564-.441-1.15-1.26-1.14-.775-.011-1.314.528-1.32 1.26v4.681h-1.62V5.22c.149-.029.36-.217.48-.3.459-.303 1.497-.948 2.58-.96zm-14.22.96c-.785-.011-1.324.528-1.32 1.26v4.681h-1.62V5.22c.14-.029.351-.217.48-.3.449-.303 1.417-.925 2.46-.9v.9zm6.96-.9c-1.834-.008-3.34 1.543-3.36 3.48.021 1.889 1.526 3.439 3.36 3.42 1.883.02 3.389-1.531 3.359-3.42.03-1.938-1.476-3.488-3.359-3.48zm-11.28 6.84V5.94c.02-1.289-1.34-1.687-2.46-1.68-2.091-.007-2.888 1.095-2.94 1.98h1.74c.188-1.026.867-1.097 1.2-1.08.323-.017.839.077.84.78-.001.622-1.853 1.055-2.28 1.2-.737.276-2.01.488-1.979 2.04-.03 1.589 1.892 1.94 2.46 1.92.675.021 1.518-.073 2.1-.239h1.319z"/><path d="M43.74 4.86c.894-.02 1.599 1.16 1.62 2.64-.021 1.431-.727 2.61-1.62 2.64-.845-.029-1.55-1.209-1.561-2.64.011-1.479.717-2.659 1.561-2.64zM30.84 9c-.001.55-.376 1.323-1.14 1.32a1.102 1.102 0 01-1.141-1.141c-.029-.485.1-.849.54-1.14.403-.318 1.13-.67 1.5-.84.075-.018.239-.088.24.12V9z" fill="#fff"/></svg><svg viewBox="0 0 1938.3 409.9" id="clear-correct" xmlns="http://www.w3.org/2000/svg"><g fill="#010101"><path d="M983.3 257c-2.8 1.1-5 2.1-7.2 2.8-27.6 9.4-55.8 11.7-84.3 5.7-25.4-5.4-46.3-18.1-61.3-39.8-14.3-20.6-19.6-44-20.7-68.5-.7-15.2.7-30.3 4.5-45.1 6.5-25.7 19.3-47.3 41.4-62.6 19.5-13.5 41.5-18.7 64.7-19.4 16.2-.5 32.2 1.5 47.7 6.4 4.8 1.6 9.5 3.3 14.5 5 2.7-9.1 5.4-17.9 7.8-26.7.3-.9-.5-2.6-1.3-3.2-1.2-1-2.8-1.4-4.4-2-15.4-5.9-31.6-8.6-48-9.4-16.1-.8-32.2-.4-48.2 2.8-27.5 5.6-52 17-72.3 36.3-28.5 27.2-41.8 61.4-44.4 100-1.1 16.4-.4 32.7 2.8 49 5.2 26.3 15.6 50 34.2 69.6 25.9 27.2 58.8 39 95.4 41.2 17.9 1.1 35.8.1 53.4-3.7 10.3-2.3 20.3-5.7 30.3-8.7 1.6-.5 2.9-1.3 2.3-3.5-2.3-8.5-4.5-17.1-6.9-26.2zm771.5 3.2c-1.3.4-2.2.7-3 1-16.7 6.9-33.9 10.3-51.9 8.3-26.2-2.9-45.6-15.9-56.6-39.8-10.6-23.2-10.8-47.3-2.4-71.2 8.1-23.2 24.2-38.3 48.3-44.5 15.1-3.9 30.3-3.3 45.4.2 6.4 1.5 12.7 4 19.3 6.1 2.3-7.6 4.3-15.4 6.9-23 1.2-3.6.3-5-3.1-6.2-27.3-10-55-11.6-83-3.8-32.7 9.1-56.1 29.4-68.3 61.3-11.7 30.5-11.3 61.3.9 91.6 11.1 27.3 31.2 45.4 59.3 54.1 22.4 7 45.1 6.5 67.7 1.6 8.1-1.8 15.9-4.7 23.7-7.4 1.1-.4 2.8-2.3 2.6-3.3-1.9-8.2-3.8-16.4-5.8-25zm56-223c-1.5.4-2.6.6-3.5.9-9.2 2.9-18.4 6-27.7 8.6-3.7 1.1-4.7 2.8-4.7 6.5.1 57.7 0 115.4.2 173.1 0 9.8.9 19.6 2.3 29.3 1.8 13 7.2 24.5 17.9 32.9 13.6 10.7 29.3 12 45.6 10.6 6.4-.6 12.7-2.3 18.9-3.8 1.2-.3 3.1-2 3-3-.2-7.7-.7-15.4-1.3-23-.1-.6-1.6-1.7-2.4-1.6-4.5.4-9.1 1.3-13.6 1.6-16.2 1-28.3-3.5-32.4-22.3-1.3-5.9-2.1-12-2.1-18.1-.2-36.6-.1-73.1-.1-109.6 0-4.6.2-4.8 4.9-4.8 15.2 0 30.3-.1 45.5.1 3 0 4.2-.9 4.1-4-.2-6.4-.2-13 0-19.4.1-3.5-1.2-4.4-4.5-4.4-14.9.1-29.8.1-44.7.1-5.2 0-5.2 0-5.2-5.1V48.5c-.2-3.6-.2-7.3-.2-11.3zM277.1 8c-1.5.3-2.5.4-3.4.7-9.6 2.9-19.2 5.9-28.9 8.6-3.3.9-4.4 2.5-4.4 6 .1 27.9.1 55.7.1 83.6v182.7c0 5.2 0 5.2 5.4 5.2H272c5.2 0 5.2 0 5.2-5.1V8zm437.8 311.6c1.4 2.3 2.3 3.8 3.3 5.2 15 22.5 35.3 38.9 58.8 51.7 37.6 20.4 78.5 29.1 120.6 32.5 14.7 1.2 29.5 1.1 44.2.9 13-.2 26-1.1 39-2.2 20.1-1.7 39.8-5.5 59.1-11.2 32.1-9.4 61.7-23.4 86.6-46.3 9.2-8.5 17.3-18.1 23.7-29-1.4 1-2.7 2.1-4 3.3-1.4 1.2-2.8 2.5-4.3 3.7-20.7 16.9-44.7 27.1-69.9 34.8-37.4 11.3-76 15.8-114.8 17-28.9.9-57.8.5-86.7-2.6-21.1-2.3-42.1-5.3-62.7-10.6-34-9.3-66.1-21.8-92.9-47.2zm587.9-202.5c0-10.7.1-21.3-.1-31.8 0-.9-1.6-2.3-2.5-2.4-4.8-.4-9.7-1-14.5-.3-18.8 2.7-32.7 13-42.7 28.8-2.8 4.4-4.6 9.4-7 14-.4.9-1.4 1.5-2.1 2.3-.6-.9-1.3-1.8-1.8-2.8-.3-.6-.1-1.5-.1-2.2-.3-10.7-.6-21.3-.8-32 0-2.9-.9-3.9-3.9-3.8-8.3.1-16.7.1-24.9 0-2.7-.1-3.4 1.1-3.3 3.6.6 10.8 1.3 21.5 1.4 32.3.1 55.8.1 111.6 0 167.4 0 3.7.9 5 4.7 4.9 8.9-.3 17.9-.1 26.9-.1 5 0 5 0 5-5.2 0-35.9-.1-71.9.1-107.8.1-13.1 2.7-25.9 9.1-37.6 8.2-15 20.3-25 37.8-27 6-.8 12.1-.3 18.7-.3zm116.3-.6c0-10.1.1-20.7-.1-31.3 0-.8-1.4-2.1-2.3-2.2-5-.3-10.2-1.1-15.2-.3-20.5 2.9-34.8 14.7-44.6 32.5-1.8 3.3-3.2 7-4.9 10.4-.4.9-1.5 1.3-2.3 2-.5-.9-1.1-1.8-1.3-2.7-.2-1.1-.1-2.2-.1-3.3-.3-10.1-.6-20.1-.7-30.2-.1-3.4-1.2-4.8-4.9-4.7-7.6.3-15.2.3-22.7 0-3.7-.1-4.7 1.1-4.5 4.7.6 15.5 1.4 31 1.5 46.5.2 50.6.1 101.2.1 151.7 0 5.2 0 5.2 5.4 5.2h25.4c5.3 0 5.3 0 5.4-5.3.1-36.4.3-72.8.5-109.2.1-11.3 2.3-22.3 7.2-32.5 7.2-15.4 18.4-26.6 35.6-29.9 6.9-1.4 14.4-1 22.5-1.4zm-655 1.1c0-11.1.1-21.9-.1-32.7 0-.7-1.6-1.9-2.5-2-4.7-.4-9.5-1.1-14.1-.5-18.4 2.4-32.3 12.1-42.4 27.4-3 4.5-5 9.7-7.6 14.5-.6 1.2-1.8 2.1-2.6 3.1-.5-1.3-1.5-2.7-1.5-4-.4-10.6-.6-21.1-.9-31.7-.1-4.7-.6-5.1-5.1-5.1-7.4 0-15 .1-22.4-.1-3.5-.1-4.8.9-4.7 4.5.6 15 1.4 30 1.5 45 .2 51.3.1 102.7 0 154 0 3.5.9 4.8 4.5 4.7 8.8-.2 17.6-.1 26.5-.1 5.1 0 5.1 0 5.1-5.2 0-33.3-.1-66.6.1-99.9.1-12.8 1.1-25.5 5.7-37.7 8.9-23.3 27.8-36.4 51.4-35.4 3.1.4 5.9.9 9.1 1.2zm1172.1-3.4c.5 0 1.1-.1 1.6-.1.2-.6.6-1.3.6-2-.5-7.5-1-15.1-1.7-22.6-.1-1-1.6-2.6-2.4-2.6-1.1.1-2.8 1.1-3.2 2.2-2.1 5-3.8 10.3-5.6 15.4-.8 2.1-1.6 4.3-2.8 7.2-.9-1.8-1.3-2.6-1.7-3.5-2.3-6.2-4.4-12.4-6.9-18.5-.5-1.3-2.3-2-3.5-3-.7 1.2-1.9 2.3-2.1 3.6-.7 6.8-1.3 13.6-1.7 20.3-.1 1.1.4 2.3.7 3.5.6-1.2 1.6-2.3 1.7-3.5.4-6 .6-12.1 1-18.2.1-1.1.5-2.1.8-3.2 1.3 1.1 1.8 2.3 2.1 3.4 2.2 6.2 4.3 12.4 6.7 18.6.4 1.2 1.8 2.1 2.7 3 .9-1.1 2.2-1.9 2.6-3.1 2.3-6.2 4.5-12.4 6.7-18.6.4-1.2 1-2.3 1.5-3.4l1 .2c.6 8.4 1.2 16.6 1.9 24.9zm-54.3-27c-.1.5-.1.9-.1 1.4 1.9.1 3.9.4 5.8.3 2.8-.1 3.8.9 3.7 3.6-.1 6.1-.1 12.1 0 18.2 0 1.1.4 2.3.7 3.4.4 0 .8-.1 1.2-.1.1-1.3.4-2.6.4-3.8.1-5.7.1-11.4 0-17.1-.1-3.2.9-4.6 4.3-4.3 1.8.1 3.5-.2 5.3-.4-.1-.4-.1-.9-.1-1.3zM0 148.3c.4-2.4.9-4.8 1.1-7.2C2.8 110 11.7 81.3 30.6 56.2c20.3-27 47.6-43.4 80.2-51.5C130.3 0 150.1-.6 170 .7c15.1 1.1 29.8 3.8 43.9 8.9 6.7 2.5 6.7 2.6 4.7 9.4-2.2 7.4-4.5 14.9-6.8 22.7-2.6-1-4.7-1.9-6.9-2.8-13.1-4.9-26.6-7.4-40.6-8.4-18.9-1.4-37.2.4-55 6.7-33.3 11.8-54 35.6-64.1 69-5.3 17.4-6.9 35.4-5.9 53.4 1.3 25.1 7.4 48.8 22.9 69.3 15.8 20.8 37.1 32.7 62.5 37.3 27.3 5 54.1 2.7 80.4-6.2 7.7-2.6 7.7-2.7 9.7 5.1 1.4 5.5 2.6 11.1 4.4 16.5 1 3.2-.1 4.7-2.9 5.5-11.1 3-22.1 6.7-33.4 8.9-15.9 3.3-32.3 4-48.5 3-44.8-2.8-82.7-19.1-108.9-57.2-12.8-18.6-19.8-39.6-22.7-62-.9-6.5-1.1-13.1-1.7-19.6-.1-1.3-.6-2.6-.9-3.9z"/><path d="M983.3 257c2.3 9 4.6 17.6 6.9 26.3.6 2.2-.7 3-2.3 3.5-10.1 3-20.1 6.4-30.3 8.7-17.5 3.9-35.4 4.8-53.4 3.7-36.6-2.3-69.5-14-95.4-41.2-18.6-19.6-29.1-43.3-34.2-69.6-3.2-16.2-3.9-32.6-2.8-49 2.6-38.6 15.9-72.9 44.4-100C836.6 20 861.1 8.7 888.5 3.2 904.4-.1 920.6-.3 936.7.4c16.4.8 32.5 3.5 48 9.4 1.5.6 3.2 1.1 4.4 2 .8.6 1.6 2.3 1.3 3.2-2.5 8.9-5.1 17.6-7.8 26.7-5-1.8-9.7-3.5-14.5-5-15.5-5-31.5-6.9-47.7-6.4-23.2.7-45.2 6-64.7 19.4-22.1 15.3-34.9 36.9-41.4 62.6-3.8 14.8-5.1 29.8-4.5 45.1 1.1 24.5 6.4 47.9 20.7 68.5 15 21.6 35.9 34.4 61.3 39.8 28.6 6.1 56.8 3.8 84.3-5.7 2.3-.9 4.5-1.8 7.2-3z"/><path d="M981.1 192.3c.5-24.5 5.7-47.5 19.7-67.8 15.7-22.9 39.4-35.1 66.7-39.6 21-3.5 39.9-3 59.5 5.7 26.5 11.7 43.7 32.1 51.9 59.6 9.8 32.6 8.6 64.9-6.7 95.7-15 30.1-40.3 46.6-73.2 52.1-20.5 3.4-40.5 1.6-59.4-7-30.9-14-48.5-38.8-55.3-71.7-1.7-8.9-2.1-18-3.2-27zm165.7 3.1c0-3.5.1-6.9 0-10.4-.4-15.7-4.2-30.5-11.7-44.2-13.5-24.6-36.5-35.4-63.8-30.3-18.6 3.5-31.8 14.5-40.8 30.8-7.2 13-10.4 27.2-11.4 42-1.3 17.7 1.3 34.7 8.6 50.8 9.1 20.2 29.4 40.7 60.9 37.6 12.8-1.2 23.7-6.3 33-15 17.7-16.5 24.1-37.9 25.2-61.3zm424.3 65.2c1.9 8.2 3.8 15.9 5.5 23.8.1.9-1.4 2.8-2.6 3.1-9.9 3-19.8 6.4-30 8.6-14.5 3.3-29.3 4-44.1 3-30.4-2-56.4-13.2-74.7-38.8-10.8-15.2-16.4-32.5-18.1-51-2.1-21.2-.4-42 6.8-62 10.2-28.1 27.1-49.1 56.1-59 28.4-9.7 57.1-9.4 82.6 8.2 16.4 11.2 25.7 27.7 31.3 46.3 5.1 16.7 6.4 33.8 4.5 51.2-.3 2.6-1.4 3-3.6 3-10.8-.1-21.6 0-32.5 0h-110.9c-.6 11.8 1.4 22.7 5.6 33.2 9 22.4 26.1 35 49.4 39 24 4 47.5 1.1 70.3-7.2 1.5-.4 2.7-.8 4.4-1.4zm-73.2-89.6c17.4 0 34.8-.1 52.2.1 3.1 0 4.3-1.1 4-4.1-.3-2.7-.4-5.5-.7-8.2-1.7-12.9-5.5-25-14.3-34.9-9.6-10.7-21.8-15.3-36.1-15.7-15.5-.4-28.8 4-39.8 15-12 12-18.1 27-21 43.6-.6 3.5.3 4.3 3.6 4.3 17.3-.2 34.7-.1 52.1-.1zM458.3 260.5c2 8.4 4 16.3 5.6 24.3.1.7-1.3 2.3-2.3 2.6-11.4 3.3-22.7 7-34.4 9.5-13.1 2.8-26.6 3.1-40 2.3-44.4-2.8-79.9-27.3-90.5-75.4-6.9-31.3-3.8-62 10.8-90.9 4.5-8.9 10.6-16.6 17.5-23.9 13.7-14.3 33.7-21.8 52.9-24.6 30-4.4 53.7 0 74.8 24 11.6 13.1 17.7 28.8 21.3 45.8 2.7 13 3 26.1 1.8 39.3-.3 3.4-1.9 3.8-4.8 3.8-40.2-.1-80.3-.1-120.5-.1-6.3 0-12.7.1-19 0-1.9 0-3 .4-3 2.7.5 23 8.6 51.2 38.3 64.4 15 6.7 30.6 7.5 46.7 6.3 11.8-.9 23.4-2.6 34.7-6.3 3.2-1.2 6.3-2.4 10.1-3.8zm-129.1-89.8c1.3.1 2 .3 2.8.3h38.8c22.1 0 44.2-.1 66.3.1 3.3 0 4.7-.9 4.2-4.2-.8-5.9-1.1-11.9-2.4-17.6-9.7-43.2-52.5-49-78.6-33.7-13.4 7.8-21.3 20.2-26.5 34.4-2.5 6.5-4.5 13.2-4.6 20.7zm310.7 124.1c-10.5 0-20.5.1-30.5-.1-.9 0-2.3-1.6-2.5-2.7-.9-6.4-1.6-12.8-2.3-19.2-.2-1.4-.6-2.8-1.1-5-1.4 1.1-2.4 1.8-3.1 2.6-18 22-41.7 30.8-69.4 28.7-30.2-2.3-50.3-21.3-55.1-48.4-5-27.9 9.5-52.1 33.9-66.8 14.1-8.6 27.3-15 43.5-17.2 14.3-2 28.8-2.8 43.3-3.8 3.5-.2 4.9-1.3 4.4-4.5-1.2-7.8-1.6-15.9-4.1-23.3-6.2-18.1-21.6-25-38.9-25.9-20.6-1.1-39.9 3.5-57.8 14-.4.2-.9.3-1.8.5-2.6-7.4-5.2-14.5-7.4-21.8-.2-.8 1.3-2.5 2.3-3.2 12-7.4 25.2-11.4 39-14.2 10.8-2.1 21.7-2.8 32.6-2.2 35.4 1.8 62.1 18.6 69.7 58.5 1.6 8.5 2.2 17.2 2.3 25.9.3 26.4-.2 52.9.2 79.4.3 14.9 1.8 29.7 2.8 44.5-.2 1.2-.1 2.4 0 4.2zm-37.7-85.7c-.2 0-.4-.1-.6-.1 0-5.8-.1-11.7 0-17.5.1-2.6-.9-3.4-3.5-3.5-13.7-.1-27.3.2-40.8 3-9.4 2-18.6 4.6-26.7 9.9-15.9 10.3-22.3 26.6-18 45.1 2.9 12.4 10.4 20.7 22.5 24.6 7.6 2.4 15.4 2.1 23.2.9 19.6-2.8 37.3-18.4 41.5-37.8 1.9-7.9 1.7-16.3 2.4-24.6zm1152.6 51.1c2 8.6 4 16.8 5.7 25.1.2.9-1.4 2.9-2.6 3.3-7.9 2.7-15.7 5.7-23.7 7.4-22.6 4.9-45.3 5.3-67.7-1.6-28.1-8.8-48.3-26.9-59.3-54.1-12.3-30.3-12.5-61.2-.9-91.6 12.2-31.9 35.6-52.2 68.3-61.3 27.9-7.8 55.7-6.2 83 3.8 3.3 1.2 4.3 2.6 3.1 6.2-2.6 7.6-4.7 15.4-6.9 23-6.6-2.1-12.8-4.6-19.3-6.1-15-3.5-30.3-4.1-45.4-.2-24 6.2-40.2 21.3-48.3 44.5-8.3 23.9-8.2 48 2.4 71.2 11 24 30.4 36.9 56.6 39.8 18.1 2 35.3-1.3 51.9-8.3.9-.4 1.7-.6 3.1-1.1zm56-223v44.4c0 5.1 0 5.1 5.2 5.1 14.9 0 29.8.1 44.7-.1 3.3 0 4.7.9 4.5 4.4-.3 6.4-.2 12.9 0 19.4.1 3.1-1.1 4-4.1 4-15.2-.1-30.3-.1-45.5-.1-4.7 0-4.9.2-4.9 4.8 0 36.6-.1 73.1.1 109.6 0 6 .8 12.2 2.1 18.1 4 18.8 16.2 23.2 32.4 22.3 4.5-.3 9.1-1.2 13.6-1.6.8-.1 2.4 1 2.4 1.6.6 7.7 1.1 15.3 1.3 23 0 1-1.8 2.6-3 3-6.2 1.5-12.5 3.1-18.9 3.8-16.3 1.6-32 .1-45.6-10.6-10.7-8.4-16-19.8-17.9-32.9-1.3-9.6-2.2-19.5-2.3-29.3-.2-57.7-.1-115.4-.2-173.1 0-3.8 1-5.5 4.7-6.5 9.4-2.6 18.5-5.7 27.7-8.6 1.2-.1 2.2-.3 3.7-.7zM277.1 8v281.7c0 5.1 0 5.1-5.2 5.1h-26.1c-5.4 0-5.4 0-5.4-5.2V106.9c0-27.9.1-55.7-.1-83.6 0-3.5 1.1-5 4.4-6 9.7-2.7 19.3-5.7 28.9-8.6 1-.3 2-.4 3.5-.7zm437.8 311.6c26.8 25.5 58.9 38.1 92.9 46.8 20.6 5.3 41.5 8.4 62.6 10.6 28.8 3.1 57.8 3.5 86.7 2.6 38.9-1.3 77.4-5.7 114.8-17 25.2-7.7 49.3-17.9 69.9-34.8 1.4-1.2 2.8-2.4 4.3-3.7 1.3-1.1 2.6-2.3 4-3.3-6.4 10.9-14.4 20.5-23.7 29-24.9 23-54.5 37-86.6 46.3-19.3 5.7-39 9.5-59.1 11.2-13 1.1-26 2.1-39 2.2-14.7.2-29.6.3-44.2-.9-42.1-3.5-83-12-120.6-32.5-23.5-12.8-43.8-29.2-58.8-51.7-.9-1.2-1.8-2.6-3.2-4.8zm587.9-202.5c-6.5 0-12.7-.6-18.6.1-17.5 2-29.6 12-37.8 27-6.4 11.7-9 24.5-9.1 37.6-.3 35.9-.1 71.9-.1 107.8 0 5.2 0 5.2-5 5.2-8.9 0-17.9-.2-26.9.1-3.9.1-4.7-1.2-4.7-4.9.1-55.8.1-111.6 0-167.4 0-10.8-.9-21.5-1.4-32.3-.1-2.6.6-3.6 3.3-3.6 8.3.1 16.7.1 24.9 0 2.9-.1 3.8.9 3.9 3.8.1 10.7.5 21.3.8 32 0 .8-.1 1.6.1 2.2.4 1 1.1 1.9 1.8 2.8.7-.8 1.7-1.3 2.1-2.3 2.4-4.6 4.3-9.6 7-14 9.9-15.9 23.9-26.2 42.7-28.8 4.7-.6 9.6-.1 14.5.3.9.1 2.4 1.6 2.5 2.4zm116.3-.6c-8.1.4-15.6-.1-22.8 1.3-17.2 3.3-28.4 14.5-35.6 29.9-4.8 10.2-7.1 21.2-7.2 32.5-.2 36.4-.4 72.8-.5 109.2 0 5.3 0 5.3-5.4 5.3h-25.4c-5.4 0-5.4 0-5.4-5.2 0-50.6.1-101.2-.1-151.7-.1-15.5-.9-31-1.5-46.5-.1-3.5.8-4.8 4.5-4.7 7.6.3 15.2.3 22.7 0 3.7-.1 4.8 1.3 4.9 4.7.2 10.1.5 20.1.7 30.2 0 1.1-.1 2.3.1 3.3.2.9.9 1.8 1.3 2.7.8-.6 1.8-1.1 2.3-2 1.7-3.4 3-7.1 4.9-10.4 9.9-17.7 24.2-29.5 44.6-32.5 5-.7 10.1 0 15.2.3.9.1 2.3 1.4 2.3 2.2.4 10.7.4 21.4.4 31.4zm-655 1.1c-3.3-.4-6.1-.9-8.9-1-23.6-1.1-42.5 12-51.4 35.4-4.7 12.2-5.7 24.9-5.7 37.7-.1 33.3-.1 66.6-.1 99.9 0 5.2 0 5.2-5.1 5.2-8.9 0-17.6-.1-26.5.1-3.7.1-4.6-1.1-4.5-4.7.1-51.3.1-102.7 0-154-.1-15-.9-30-1.5-45-.1-3.8 1.1-4.7 4.7-4.5 7.4.2 14.9.1 22.4.1 4.5 0 5 .4 5.1 5.1.3 10.6.5 21.1.9 31.7.1 1.3 1 2.7 1.5 4 .9-1.1 2-2 2.6-3.1 2.6-4.8 4.6-10 7.6-14.5 10.1-15.3 24-25 42.4-27.4 4.6-.6 9.4.1 14.1.5.9.1 2.5 1.3 2.5 2 0 10.6-.1 21.4-.1 32.5zm1172.1-3.4c-.7-8.3-1.3-16.6-2.1-24.8l-1-.2c-.5 1.1-1.1 2.3-1.5 3.4-2.3 6.2-4.4 12.4-6.7 18.6-.4 1.2-1.7 2.1-2.6 3.1-.9-1-2.2-1.8-2.7-3-2.3-6.2-4.5-12.4-6.7-18.6-.4-1.1-.9-2.3-2.1-3.4-.3 1.1-.7 2.1-.8 3.2-.4 6.1-.6 12.1-1 18.2-.1 1.2-1.1 2.3-1.7 3.5-.3-1.1-.8-2.3-.7-3.5.5-6.8 1-13.6 1.7-20.3.1-1.3 1.3-2.4 2.1-3.6 1.2 1 3 1.7 3.5 3 2.5 6.1 4.6 12.3 6.9 18.5.4.9.9 1.7 1.7 3.5 1.1-3 2-5.1 2.8-7.2 1.8-5.1 3.5-10.3 5.6-15.4.4-1.1 2.1-2.1 3.2-2.2.8-.1 2.3 1.6 2.4 2.6.7 7.5 1.2 15.1 1.7 22.6.1.6-.4 1.3-.6 2-.3-.1-.8-.1-1.4 0zm-54.3-27h21c.1.4.1.9.1 1.3-1.8.1-3.5.5-5.3.4-3.3-.3-4.3 1.1-4.3 4.3.2 5.7.1 11.4 0 17.1 0 1.3-.2 2.6-.4 3.8-.4 0-.8.1-1.2.1-.2-1.1-.7-2.3-.7-3.4-.1-6.1-.1-12.1 0-18.2.1-2.8-.9-3.8-3.7-3.6-1.9.1-3.9-.1-5.8-.3.2-.5.2-1 .3-1.5z"/></g></svg><svg viewBox="0 0 64 64" id="comparison" xmlns="http://www.w3.org/2000/svg"><path d="M60 29h-9V14h1.465A2.539 2.539 0 0055 11.465c0-.502-.147-.988-.426-1.406l-5.188-7.781a2.866 2.866 0 00-4.773-.001l-5.188 7.781A2.536 2.536 0 0041.535 14H43v15h-9c-.352 0-.686.072-1 .184V4c0-1.654-1.346-3-3-3H4C2.346 1 1 2.346 1 4v28c0 1.654 1.346 3 3 3h9v15h-1.465A2.539 2.539 0 009 52.535c0 .502.147.988.426 1.406l5.188 7.781a2.866 2.866 0 004.773.001l5.188-7.781A2.536 2.536 0 0022.465 50H21V35h9c.352 0 .686-.072 1-.184V60c0 1.654 1.346 3 3 3h26c1.654 0 3-1.346 3-3V32c0-1.654-1.346-3-3-3zM41.535 12a.536.536 0 01-.445-.832l5.188-7.781c.322-.484 1.123-.484 1.445 0l5.188 7.781a.537.537 0 01-.446.832H49v17h-4V12zM34 31h26a1 1 0 011 1v5H33v-5a1 1 0 011-1zM4 3h26a1 1 0 011 1v5H3V4a1 1 0 011-1zm18.465 49a.536.536 0 01.445.832l-5.188 7.781c-.322.484-1.123.484-1.445 0l-5.188-7.781a.537.537 0 01.446-.832H15V35h4v17zM30 33H4a1 1 0 01-1-1V11h28v21a1 1 0 01-1 1zm30 28H34a1 1 0 01-1-1V39h28v21a1 1 0 01-1 1z"/><path d="M35 33h2v2h-2zM39 33h2v2h-2zM43 33h2v2h-2zM13 5h2v2h-2zM5 5h2v2H5zM9 5h2v2H9zM49.323 49.225A3.983 3.983 0 0050 47c0-2.206-1.794-4-4-4h-4v14h6c2.206 0 4-1.794 4-4a4.007 4.007 0 00-2.677-3.775zM44 45h2c1.103 0 2 .897 2 2s-.897 2-2 2h-2zm4 10h-4v-4h4c1.103 0 2 .897 2 2s-.897 2-2 2zM17 15c-3.309 0-6 2.691-6 6v8h2v-4h8v4h2v-8c0-3.309-2.691-6-6-6zm-4 8v-2c0-2.206 1.794-4 4-4s4 1.794 4 4v2z"/></svg><svg fill-rule="evenodd" clip-rule="evenodd" viewBox="0 0 24 24" id="delivery" xmlns="http://www.w3.org/2000/svg"><path d="M5 18H4a1 1 0 01-1-1v-2h12V6h4.667c1.117 0 1.6.576 1.936 1.107.594.94 1.536 2.432 2.109 3.378.188.312.288.67.288 1.035V16c0 1.121-.728 2-2 2h-1a3.001 3.001 0 01-6 0h-4a3.001 3.001 0 01-6 0zm3-1.2a1.201 1.201 0 010 2.4 1.201 1.201 0 010-2.4zm10 0a1.201 1.201 0 010 2.4 1.201 1.201 0 010-2.4zM8 8H0V6h8V5H3V4a1 1 0 011-1h9a1 1 0 011 1v10H3v-3H1V9h7V8zm9 0v3h4.715l-1.427-2.496A.999.999 0 0019.42 8H17z"/></svg><svg viewBox="0 0 24 24" id="double-arrow" xmlns="http://www.w3.org/2000/svg"><path d="M10.024 4h6.015L24 12l-7.961 8h-6.015l7.961-8-7.961-8zM0 20h6.015l7.961-8-7.961-8H0l7.961 8L0 20z"/></svg><svg viewBox="0 0 24 24" id="email" xmlns="http://www.w3.org/2000/svg"><path d="M12 12.713L.015 3h23.97L12 12.713zm0 2.574L0 5.562V21h24V5.562l-12 9.725z"/></svg><svg viewBox="0 0 24 24" id="entrance" xmlns="http://www.w3.org/2000/svg"><path d="M12 2c5.514 0 10 4.486 10 10s-4.486 10-10 10S2 17.514 2 12 6.486 2 12 2zm0-2C5.373 0 0 5.373 0 12s5.373 12 12 12 12-5.373 12-12S18.627 0 12 0zm.707 13.946L11.672 15H11v1h-1v1H7v-2.292l3.146-3.185a4.606 4.606 0 002.561 2.423zM18 9.667a3.667 3.667 0 11-7.335 0 3.667 3.667 0 017.335 0zm-1.375-1.375a.917.917 0 10-1.834 0 .917.917 0 001.834 0z"/></svg><svg viewBox="0 0 1920 407" id="header" xmlns="http://www.w3.org/2000/svg"><defs><style>.amcls-1{fill:#fbb03b}</style></defs><g id="amLayer_2" data-name="Layer 2"><path class="amcls-1" d="M1920 0H0v300h726.09c9.44 15.82 22.25 30.47 37.85 43.53C810.19 382.25 880.83 407 960 407s149.81-24.75 196.06-63.47c15.6-13.06 28.41-27.71 37.85-43.53H1920z" id="amLayer_1-2" data-name="Layer 1"/></g></svg><svg viewBox="0 0 24 24" id="log-out" xmlns="http://www.w3.org/2000/svg"><path d="M16 9V5l8 7-8 7v-4H8V9h8zM0 2v20h14v-2H2V4h12V2H0z"/></svg><svg viewBox="0 0 420.09 420.4" id="logo" xmlns="http://www.w3.org/2000/svg"><defs><style>.aocls-1{fill:#fbb03b}</style></defs><g id="aoLayer_2" data-name="Layer 2"><g id="aoLayer_1-2" data-name="Layer 1"><path class="aocls-1" d="M133.24 139a24.86 24.86 0 00-2.87 2.62c28.14-54.71 98.48-75 153.19-51.58 42.2 17.19 73.47 54.71 86 98.48 29.7 101.6-48.46 204.77-151.62 217.28-68.12 7.74-136.24-18.25-178.54-70.38a.18.18 0 01.26-.25c46.59 40 102.36 67.44 165.77 61.25 65.65-6.25 125.05-50 146.94-112.55 20.32-59.4 6.25-126.62-46.9-165.69-40.64-28.14-93.79-34.39-135.22-9.4-19.95 12.55-32.13 24.84-37.01 30.22z"/><path class="aocls-1" d="M388.86 97.22c-.61-.73-9.89-11.92-17-18.36-.54-.51-1.09-1-1.61-1.41-49.14-43-114.12-63.09-180.51-48.33-84.41 20.32-145.38 100-128.18 187.57 10.94 51.59 43.77 92.23 93.79 107.86 51.1 15.49 102.18-5.84 136.57-44.22a.18.18 0 01.3.2c-22.23 41.41-71.72 65.86-119.68 61.22-61-6.26-109.42-54.71-123.49-114.11C35 165.11 56.88 102.58 105.34 60.38c65.65-56.28 161-61 231-13.6 19.53 13.44 32 24.54 38.25 31.31.63.67 1.24 1.36 1.82 2s1.14 1.28 1.68 1.92c.15.16.27.32.41.47a88 88 0 0110.36 14.74z"/><path class="aocls-1" d="M91.3 327.4c67.19 56.55 181.3 42.48 223.5-38.8 26.31-51.07 12.78-111.34-25.42-152a.18.18 0 01.23-.27c50.48 34.8 65.55 109 34.57 163.19-50 89.1-173.51 100-247 34.39C17.8 282.35.61 201.06 24.05 129.16a195.84 195.84 0 0175.68-100 .18.18 0 01.22.28C23.49 95.63-5 219.06 64.48 301.09A173.38 173.38 0 0091.3 327.4z"/><path class="aocls-1" d="M203.25 48.94c94.36-19.82 186.58 55.21 200.65 147.43 9.25 63.19-10.37 124.85-52.87 170a.18.18 0 01-.28-.23c45.78-63.88 65.17-150.29 21.89-222.93-28.14-46.9-75-78.16-129.74-82.85-50-3.13-98.48 17.19-128.18 59.4C72.93 178.59 92.43 257.31 149 295.28a.18.18 0 01-.17.31C98.36 273.11 69.54 216 81.89 160.42A147 147 0 01164.13 61a161.53 161.53 0 0139.12-12.06z"/><path class="aocls-1" d="M213.3 104.08c-1.66.07-4.78.07-3.22.07 40.64-12.51 86 4.69 114.11 35.95 28.14 32.83 39.08 73.47 32.83 115.67-9.39 56.28-48.47 103.17-100.02 123.49-54.71 21.89-115.67 15.64-167.25-17.19C23.07 318.68-11.3 240 3.34 164a.18.18 0 01.35 0c-1.12 68.13 19.4 137.52 79.76 180.85 56.28 40.65 125.06 45.34 184.46 14.07 48.45-26.57 79.72-79.72 76.59-134.43-3.13-48.46-35.95-98.48-84.33-112.9-22.62-6.45-39.81-7.39-46.87-7.51z"/><path class="aocls-1" d="M420 224.39a8 8 0 00-.46 3.21C410.15 137 344.5 52.56 249.15 43.18 172.55 35.37 96 83.83 78.76 162c-10.94 50 7.82 100 48.46 131.31 29.37 23.19 64.86 23.44 98.9 21.94a.18.18 0 01.07.35c-40.39 15.06-86.75 5.6-119.29-22.29C50.63 243.27 47.5 162 89.71 101 142.85 24.43 246 8.79 324.18 55.69c43.77 26.57 75 67.21 87.64 114.67 7.18 28 8.71 46.55 8.18 54.03z"/><path class="aocls-1" d="M45.08 218.13c8.67 39.21 27.43 75.16 61.82 100.17 45.33 32.83 100 37.52 148.5 9.38C297.13 303 319 258.35 318 210.51a.18.18 0 01.35 0c10.12 41.79-7.05 87.89-39.47 117.22-34.39 29.7-79.72 37.52-125 28.14-78.24-18.81-128.26-95.41-125.14-172C33.39 72.3 144-14.69 252.54 2.07a.18.18 0 010 .36C150.25-.74 45.91 73.89 42.68 180.74a171.86 171.86 0 002.4 37.39z"/><path class="aocls-1" d="M321.74 92.88c47.77 31.59 71.22 91 69.66 147.26-4.67 101-98.91 186.56-199.84 179.9a.18.18 0 010-.36c76-9.79 150-50.4 176.4-126.39 25-70.34 4.69-151.63-61-193.83-43.77-26.58-93.79-29.7-139.13-6.26-48.05 26.36-68.44 80.39-61.15 131.59a.18.18 0 01-.34.1c-16.43-37.31-5.46-83.55 19.29-114.49C164.74 63.5 230.39 51 285.74 73.22a161.67 161.67 0 0136 19.66z"/></g></g></svg><svg viewBox="0 0 1920 407" id="main-logo" xmlns="http://www.w3.org/2000/svg"><defs><style>.apcls-1{fill:#fbb03b}</style></defs><g id="apLayer_2" data-name="Layer 2"><path class="apcls-1" d="M1920 0H0v300h726.09c9.44 15.82 22.25 30.47 37.85 43.53C810.19 382.25 880.83 407 960 407s149.81-24.75 196.06-63.47c15.6-13.06 28.41-27.71 37.85-43.53H1920z" id="apLayer_1-2" data-name="Layer 1"/></g></svg><svg viewBox="0 0 300 180" id="master-card" xmlns="http://www.w3.org/2000/svg"><path d="M298.032 90.5c.014 48.936-39.646 88.614-88.582 88.627-48.937.012-88.614-39.646-88.627-88.582V90.5c-.013-48.935 39.647-88.615 88.581-88.628 48.937-.013 88.615 39.647 88.628 88.583v.045z" fill="#f90"/><path d="M90.001 1.895C41.355 2.204 1.967 41.781 1.967 90.5c0 48.909 39.695 88.604 88.605 88.604 22.955 0 43.879-8.748 59.624-23.086l-.007-.004h.019a89.437 89.437 0 008.995-9.488H141.05a86.536 86.536 0 01-6.606-9.127h31.308a88.75 88.75 0 005.158-9.488h-41.635a87.392 87.392 0 01-3.703-9.309h49.045a88.388 88.388 0 004.56-28.103c0-6.512-.706-12.861-2.042-18.974h-54.164a88.347 88.347 0 012.528-9.308h49.063a88.618 88.618 0 00-3.82-9.487H129.27a85.013 85.013 0 015.084-9.307h31.285a88.798 88.798 0 00-6.877-9.488h-17.443a82.232 82.232 0 018.889-8.95c-15.746-14.34-36.676-23.09-59.636-23.09h-.571z" fill="#c00"/><path d="M289.143 136.82c.482 0 .951.125 1.409.371.46.246.814.601 1.07 1.062.256.456.384.937.384 1.435 0 .492-.127.968-.379 1.424-.251.455-.605.81-1.061 1.063-.451.249-.928.375-1.424.375s-.972-.126-1.426-.375a2.71 2.71 0 01-1.063-1.063 2.908 2.908 0 01-.377-1.424c0-.498.127-.979.384-1.435a2.663 2.663 0 011.071-1.062 2.97 2.97 0 011.412-.371m0 .475c-.401 0-.793.104-1.176.311-.38.207-.677.5-.891.888a2.378 2.378 0 00-.325 1.194c0 .412.106.81.315 1.188.214.377.51.673.888.885.381.211.776.315 1.188.315.414 0 .81-.104 1.189-.315.378-.212.673-.508.884-.885a2.392 2.392 0 00-.008-2.382 2.179 2.179 0 00-.894-.888 2.402 2.402 0 00-1.17-.311m-1.256 3.975v-3.082h1.062c.36 0 .622.028.784.088a.758.758 0 01.388.297.813.813 0 01-.098 1.039.949.949 0 01-.639.281.896.896 0 01.264.164c.125.12.275.323.455.61l.375.603h-.606l-.272-.485c-.215-.382-.388-.62-.521-.718-.091-.069-.224-.105-.397-.105h-.293v1.311h-.5m.496-1.738h.604c.288 0 .483-.044.588-.129a.421.421 0 00.159-.342.404.404 0 00-.075-.244.466.466 0 00-.213-.162c-.089-.035-.255-.055-.497-.055h-.564v.932" fill="#fcb340"/><g><path d="M119.975 115.92l1.18-8.02c-.645 0-1.593.279-2.431.279-3.284 0-3.694-1.755-3.436-3.037l3.236-16.13h4.992l1.029-9.103h-4.705l.958-5.516h-9.842c-.208.208-5.568 31.022-5.568 34.776 0 5.555 3.118 8.027 7.516 7.988 3.442-.03 6.125-.982 7.071-1.237zM122.962 100.632c0 13.332 8.799 16.499 16.297 16.499 6.921 0 10.55-1.604 10.55-1.604l1.662-9.1s-5.848 2.378-10.601 2.378c-10.131 0-8.355-7.554-8.355-7.554l19.463.059s1.239-6.111 1.239-8.602c0-6.217-3.387-13.85-13.745-13.85-9.486.003-16.51 10.224-16.51 21.774zm16.546-13.325c5.324 0 4.342 5.984 4.342 6.469h-10.474c0-.62.989-6.47 6.132-6.47zM199.246 115.917l1.689-10.284s-4.632 2.32-7.807 2.32c-6.693 0-9.378-5.11-9.378-10.6 0-11.137 5.758-17.265 12.168-17.265 4.808 0 8.665 2.699 8.665 2.699l1.54-9.993s-4.554-3.29-9.456-3.308c-14.745-.058-23.182 10.208-23.182 27.955 0 11.763 6.248 19.768 17.506 19.768 3.183 0 8.255-1.292 8.255-1.292zM68.086 79.006c-6.47 0-11.427 2.079-11.427 2.079l-1.37 8.127s4.093-1.663 10.28-1.663c3.514 0 6.084.395 6.084 3.25 0 1.734-.314 2.374-.314 2.374s-2.772-.231-4.056-.231c-9.21 0-16.729 3.482-16.729 13.98 0 8.273 5.623 10.17 9.108 10.17 6.657 0 9.292-4.203 9.444-4.215l-.077 3.488h8.307l3.706-25.98c0-11.025-9.616-11.38-12.956-11.38zm1.438 21.096c.18 1.586-.41 9.086-6.092 9.086-2.93 0-3.691-2.24-3.691-3.562 0-2.584 1.403-5.683 8.315-5.683 1.61 0 1.197.116 1.468.159zM89.87 116.9c2.126 0 14.273.54 14.273-11.994 0-11.721-11.244-9.404-11.244-14.114 0-2.342 1.833-3.08 5.184-3.08 1.329 0 6.447.423 6.447.423l1.189-8.33s-3.312-.741-8.704-.741c-6.98 0-14.063 2.786-14.063 12.318 0 10.802 11.812 9.717 11.812 14.267 0 3.037-3.3 3.287-5.844 3.287-4.401 0-8.363-1.511-8.377-1.438l-1.26 8.245c.23.07 2.675 1.157 10.588 1.157zM277.063 71.449l-1.705 12.709s-3.553-4.905-9.112-4.905c-10.459 0-15.849 10.423-15.849 22.396 0 7.73 3.844 15.307 11.699 15.307 5.651 0 8.784-3.941 8.784-3.941l-.415 3.365h9.178l7.207-44.862-9.787-.07zm-4.052 24.7c0 4.984-2.468 11.64-7.581 11.64-3.396 0-4.988-2.85-4.988-7.323 0-7.315 3.285-12.14 7.432-12.14 3.394 0 5.137 2.33 5.137 7.824zM17.005 116.417l5.743-33.87.844 33.87h6.499l12.125-33.87-5.371 33.87h9.658l7.437-44.922-15.342-.117-9.126 27.504-.25-27.387h-14.06l-7.544 44.922h9.387z" fill="#006"/><path d="M162.357 116.48c2.746-15.614 3.724-27.946 11.732-25.392 1.15-6.044 3.891-11.3 5.143-13.858 0 0-.396-.59-2.871-.59-4.225 0-9.866 8.575-9.866 8.575l.843-5.301h-8.786l-5.884 36.566h9.689zM219.006 79.006c-6.472 0-11.43 2.079-11.43 2.079l-1.369 8.127s4.095-1.663 10.28-1.663c3.514 0 6.083.395 6.083 3.25 0 1.734-.313 2.374-.313 2.374s-2.77-.231-4.055-.231c-9.21 0-16.729 3.482-16.729 13.98 0 8.273 5.622 10.17 9.107 10.17 6.655 0 9.292-4.203 9.443-4.215l-.078 3.488h8.31l3.704-25.98c.001-11.025-9.615-11.38-12.953-11.38zm1.436 21.096c.18 1.586-.411 9.086-6.092 9.086-2.932 0-3.692-2.24-3.692-3.562 0-2.584 1.402-5.683 8.315-5.683 1.611 0 1.199.116 1.469.159zM241.522 116.48c1.508-11.487 4.299-27.615 11.731-25.392 1.149-6.044.041-6.028-2.433-6.028-4.228 0-5.164.154-5.164.154l.844-5.301h-8.785l-5.884 36.567h9.69z" fill="#006"/><g><path d="M122.434 113.059l1.181-8.019c-.645 0-1.594.276-2.431.276-3.284 0-3.646-1.746-3.437-3.037l2.653-16.362h4.991l1.205-8.87h-4.706l.958-5.516h-9.434c-.208.208-5.569 31.023-5.569 34.775 0 5.555 3.119 8.029 7.517 7.989 3.444-.029 6.126-.982 7.072-1.236zM125.423 97.77c0 13.332 8.8 16.5 16.297 16.5 6.92 0 9.965-1.547 9.965-1.547l1.662-9.099s-5.264 2.319-10.018 2.319c-10.13 0-8.356-7.553-8.356-7.553h19.172s1.238-6.113 1.238-8.604c0-6.216-3.094-13.79-13.452-13.79-9.486.002-16.508 10.223-16.508 21.774zm16.544-13.325c5.324 0 4.342 5.983 4.342 6.467h-10.474c0-.618.99-6.467 6.132-6.467zM201.707 113.055l1.688-10.285s-4.629 2.321-7.806 2.321c-6.692 0-9.376-5.11-9.376-10.6 0-11.137 5.758-17.264 12.168-17.264 4.807 0 8.665 2.699 8.665 2.699l1.54-9.993s-5.721-2.315-10.625-2.315c-10.891 0-21.486 9.448-21.486 27.192 0 11.766 5.721 19.537 16.979 19.537 3.183.001 8.253-1.292 8.253-1.292zM70.547 76.143c-6.469 0-11.428 2.079-11.428 2.079l-1.369 8.127s4.093-1.663 10.28-1.663c3.513 0 6.083.395 6.083 3.25 0 1.734-.315 2.374-.315 2.374s-2.771-.232-4.054-.232c-8.159 0-16.73 3.482-16.73 13.98 0 8.272 5.623 10.17 9.108 10.17 6.656 0 9.525-4.319 9.678-4.332l-.311 3.605h8.307l3.706-25.981c0-11.022-9.615-11.377-12.955-11.377zm2.021 21.154c.18 1.587-.995 9.026-6.675 9.026-2.93 0-3.692-2.238-3.692-3.562 0-2.582 1.403-5.682 8.316-5.682 1.608.002 1.78.174 2.051.218zM92.331 114.038c2.125 0 14.273.54 14.273-11.995 0-11.719-11.245-9.404-11.245-14.112 0-2.344 1.833-3.082 5.183-3.082 1.33 0 6.447.423 6.447.423l1.19-8.33c0 .001-3.312-.741-8.704-.741-6.979 0-14.063 2.786-14.063 12.318 0 10.801 11.812 9.717 11.812 14.267 0 3.037-3.3 3.284-5.843 3.284-4.401 0-8.364-1.51-8.378-1.438l-1.258 8.246c.228.07 2.672 1.16 10.586 1.16zM279.852 68.668l-2.035 12.627s-3.551-4.905-9.11-4.905c-8.644 0-15.849 10.422-15.849 22.397 0 7.73 3.843 15.304 11.699 15.304 5.651 0 8.784-3.94 8.784-3.94l-.415 3.365h9.176l7.207-44.863-9.457.015zm-4.381 24.62c0 4.983-2.467 11.639-7.582 11.639-3.395 0-4.986-2.85-4.986-7.323 0-7.314 3.285-12.14 7.43-12.14 3.396-.001 5.138 2.332 5.138 7.824zM19.466 113.555l5.743-33.87.843 33.87h6.5l12.125-33.87-5.371 33.87h9.658l7.438-44.923H41.467l-9.301 27.563-.484-27.563H17.915l-7.545 44.923h9.096zM164.818 113.617c2.746-15.616 3.255-28.296 9.808-25.975 1.147-6.044 2.254-8.382 3.506-10.94 0 0-.587-.123-1.819-.123-4.225 0-7.355 5.772-7.355 5.772l.841-5.301h-8.784l-5.885 36.567h9.688zM223.475 76.143c-6.469 0-11.428 2.079-11.428 2.079l-1.368 8.127s4.093-1.663 10.28-1.663c3.513 0 6.081.395 6.081 3.25 0 1.734-.313 2.374-.313 2.374s-2.77-.232-4.055-.232c-8.158 0-16.729 3.482-16.729 13.98 0 8.272 5.622 10.17 9.107 10.17 6.656 0 9.525-4.319 9.677-4.332l-.309 3.605h8.307l3.705-25.981c.001-11.022-9.615-11.377-12.955-11.377zm2.024 21.154c.18 1.587-.996 9.026-6.678 9.026-2.93 0-3.69-2.238-3.69-3.562 0-2.582 1.403-5.682 8.315-5.682 1.608.002 1.78.174 2.053.218zM244.023 113.617c2.747-15.616 3.256-28.296 9.807-25.975 1.149-6.044 2.257-8.382 3.508-10.94 0 0-.587-.123-1.82-.123-4.224 0-7.354 5.772-7.354 5.772l.84-5.301h-8.783l-5.885 36.567h9.687zM289.105 107.975c.479 0 .951.123 1.406.373.459.242.816.598 1.072 1.059.257.458.383.935.383 1.434 0 .493-.126.969-.379 1.424a2.655 2.655 0 01-1.059 1.063c-.454.25-.93.376-1.424.376-.498 0-.974-.126-1.429-.376a2.678 2.678 0 01-1.058-1.063 2.865 2.865 0 01-.381-1.424c0-.499.127-.976.384-1.434a2.63 2.63 0 011.073-1.059c.461-.25.933-.373 1.412-.373m0 .472c-.401 0-.793.104-1.176.313a2.183 2.183 0 00-.894.885c-.214.381-.322.78-.322 1.194s.104.81.313 1.188c.213.377.509.673.891.886.378.208.773.313 1.188.313.412 0 .81-.105 1.188-.313.378-.213.674-.509.884-.886.211-.381.314-.774.314-1.188s-.107-.813-.321-1.194a2.16 2.16 0 00-.894-.885 2.408 2.408 0 00-1.171-.313m-1.255 3.976v-3.083h1.061c.361 0 .625.029.785.088a.756.756 0 01.388.297.784.784 0 01.146.451.817.817 0 01-.244.588.934.934 0 01-.637.28.946.946 0 01.262.163c.123.122.275.326.455.611l.377.604h-.609l-.271-.485c-.216-.383-.389-.621-.521-.718-.091-.071-.224-.106-.399-.106h-.291v1.311l-.502-.001m.498-1.735h.604c.289 0 .484-.043.588-.129a.418.418 0 00.16-.342.404.404 0 00-.075-.242.458.458 0 00-.213-.164c-.091-.035-.254-.053-.498-.053h-.565v.93" fill="#fff"/></g></g></svg><svg viewBox="0 0 192.756 192.756" id="nordictrack" xmlns="http://www.w3.org/2000/svg"><g fill-rule="evenodd" clip-rule="evenodd"><path fill="#fff" d="M0 0h192.756v192.756H0V0z"/><path fill="#272727" d="M13.202 84.588l5.556 12.197.678-5.014 1.22-7.183h6.64l-3.727 23.107h-6.64l-5.624-12.943-1.83 12.943H2.834l3.728-23.107h6.64zm31.034 15.111c-1.016 5.623-4.472 8.469-10.503 8.469-2.575 0-4.472-.678-5.828-2.031-1.49-1.492-1.965-3.389-1.626-5.963 1.017-5.693 4.54-8.471 10.503-8.471 2.71 0 4.743.678 6.099 2.101 1.355 1.49 1.829 3.522 1.355 5.895zm-8.131-3.931c-1.762 0-2.914 1.355-3.456 3.931-.474 2.846.204 4.268 1.898 4.268 1.83 0 2.914-1.422 3.523-4.268.407-2.711-.271-4.066-1.965-3.931zm20.328 2.033c-2.575 0-4.133 1.424-4.743 4.473l-.881 5.422H44.71l2.711-15.586h5.624l-.542 3.185c1.355-2.372 3.185-3.592 5.557-3.592l.677.068-1.017 6.098-1.287-.068zm22.158-13.213l-3.862 23.107H69.24l.339-2.033c-1.694 1.693-3.388 2.506-5.353 2.506-2.236 0-3.931-.812-4.947-2.236-.881-1.49-1.152-3.387-.678-5.691.339-2.574 1.355-4.743 3.049-6.301 1.491-1.491 3.185-2.236 5.082-2.236s3.388.678 4.269 2.033l1.288-9.148h6.302v-.001zm-8.47 15.449c.338-2.371-.339-3.592-2.033-3.592s-2.846 1.221-3.388 3.729c-.338 2.371.339 3.455 1.897 3.455 1.83 0 2.982-1.221 3.524-3.592zm7.589 7.658l2.71-15.586h6.166l-2.778 15.586H77.71zm19.176-11.927c-1.83 0-2.914 1.423-3.523 4.406-.407 2.574.271 3.793 2.033 3.793 1.491 0 2.372-.744 2.847-2.236h6.301c-1.219 4.27-4.607 6.438-9.893 6.438-2.643 0-4.675-.678-6.031-2.031-1.355-1.492-1.762-3.525-1.422-6.1.406-2.574 1.694-4.607 3.591-6.234 1.897-1.423 4.269-2.101 6.912-2.101 5.285 0 7.793 2.101 7.453 6.301h-6.438c.068-.678 0-1.219-.338-1.559-.273-.473-.679-.677-1.492-.677z"/><path fill="#272727" d="M99.123 89.331l1.016-4.743h25.004l-1.018 4.743h-8.809l-2.709 18.364h-7.115l2.711-18.364h-9.08z"/><path d="M128.26 97.869l-1.084-.068c-2.643 0-4.201 1.424-4.744 4.473l-.947 5.422h-6.303l2.846-15.586h5.625l-.543 3.185c1.355-2.372 3.117-3.592 5.488-3.592l.814.068-1.152 6.098zm18.092.272l-1.221 7.318c-.135.812 0 1.49.408 1.896v.34h-6.438v-1.559c-1.898 1.354-3.93 2.031-6.303 2.031-3.727 0-5.285-1.559-4.607-4.742.34-2.711 2.439-4.404 6.438-4.947l3.795-.609c1.287-.203 1.965-.678 2.033-1.219.135-.882-.543-1.356-1.762-1.356-1.355 0-2.305.542-2.643 1.559h-5.965c.68-3.457 3.863-5.151 9.488-5.151 3.387 0 5.555.542 6.572 1.762.542.814.679 2.372.205 4.677zm-10.164 6.504c2.033 0 3.184-1.355 3.523-3.93l-3.32 1.016c-1.084.34-1.693.814-1.762 1.559-.272.948.338 1.355 1.559 1.355zm22.902-8.2c-.203-.474-.678-.677-1.422-.677-1.695 0-2.982 1.423-3.523 4.406-.34 2.574.338 3.793 2.031 3.793 1.492 0 2.373-.744 2.914-2.236h6.234c-1.219 4.27-4.539 6.438-9.824 6.438-2.576 0-4.609-.678-5.896-2.031-1.422-1.492-2.033-3.525-1.559-6.1.34-2.574 1.559-4.607 3.523-6.234 1.898-1.423 4.27-2.101 6.844-2.101 5.354 0 7.793 2.101 7.455 6.301h-6.303a1.695 1.695 0 00-.474-1.559zm17.279-11.857l-1.762 12.266 4.745-4.745h7.181l-6.775 6.032 4.742 9.554h-7.453l-2.371-5.49-1.221 1.084-.881 4.406h-6.097l3.726-23.107h6.166zm12.672 6.979l-.475-1.219v1.219h-.34v-1.49h.475l.34 1.016.475-1.016h.406v1.49h-.34v-1.219l-.406 1.219h-.135zm-2.236-1.219v-.271h1.219v.271h-.475v1.219h-.338v-1.219h-.406z" fill="#272727"/></g></svg><svg viewBox="0 0 192.756 192.756" id="oxygen" xmlns="http://www.w3.org/2000/svg"><g fill-rule="evenodd" clip-rule="evenodd"><path fill="#fff" d="M0 0h192.756v192.756H0V0z"/><path d="M8.504 99.73C8.261 93.208 19.96 86.98 38.57 82.469 26.649 86.52 19.595 91.42 19.785 96.5c.386 10.367 30.796 18.014 70.67 18.58l4.958.178s12.96.094 21.238-.242c10.484-.426 16.4-.885 26.824-2.084l.055-.004c-13.68 2.754-30.24 4.643-48.126 5.229-47.558 1.556-86.463-6.694-86.9-18.427z"/><path d="M172.971 96.256c-.389-10.441-31.234-18.123-71.533-18.591l-5.681-.085-5.931-.039s-5.542-.1-13.743.23c-10.485.422-16.401.881-26.825 2.084l-.273.022c13.727-2.78 30.379-4.688 48.37-5.277 47.557-1.557 86.461 6.692 86.898 18.425.168 4.523-5.404 8.904-15.043 12.67-4.262 1.664-9.316 3.209-15.023 4.592 5.9-2.004 10.609-4.219 13.836-6.557 3.293-2.388 5.043-4.908 4.948-7.474z" fill="#d9782d"/><path d="M149.527 94.173c-.361-.648-.477-.269-.615.082l-4.592 11.573c-.117.293-.713.697-1.027.697h-2.746c-.906 0-1.359-.67-1.025-1.512l7.754-19.545c.398-1.004 1.32-1.109 1.936-.222l7.982 11.539c.172.268.287.229.592-.457l4.529-11.386c.117-.292.713-.697 1.027-.697h2.746c.906 0 1.361.67 1.027 1.512l-7.756 19.546c-.398 1.002-1.32 1.109-1.936.221l-7.896-11.351zM46.773 83.8c7.219 0 11.099 5.334 8.458 11.992-2.507 6.319-9.845 11.178-16.774 11.178-7.22 0-11.1-5.336-8.458-11.993C32.506 88.659 39.844 83.8 46.773 83.8zm-7.381 18.602c4.096 0 9.177-3.283 10.82-7.424 1.517-3.823-.59-6.61-4.375-6.61-4.096 0-9.176 3.283-10.819 7.424-1.518 3.823.59 6.61 4.374 6.61zm22.49-2.75l-6.713 6.391c-.396.359-.704.482-.952.482h-2.995c-1.087 0-1.478-1.264-.706-1.969l9.715-9.192s.25-.199.286-.381c.021-.11-.019-.286-.019-.286l-2.39-8.991c-.222-.954.241-1.462 1.078-1.462h3.274c.555 0 .975.204 1.166 1.148l1.184 5.725 6.653-6.346c.362-.362.788-.528 1.012-.528h2.995c1.332 0 1.275 1.367.76 1.906l-9.995 9.473s-.065.067-.082.122c-.013.042-.006.114-.006.114l2.379 8.983c.229.906-.184 1.684-1.021 1.684h-3.354c-.493 0-.925-.291-1.087-1.227l-1.182-5.646zm23.798-7.445l7.673-7.32s.539-.642 1.296-.642h2.995c1.258 0 1.334 1.348.748 1.916L86.596 97.105l-3.507 8.723c-.118.291-.509.697-1.027.697h-2.705c-.667 0-1.066-.43-1.125-.912-.066-.545.257-1.152.257-1.152l3.236-8.109-3.124-10.512c-.274-1.067.183-1.595 1.062-1.595h3.113c.489 0 .833.108 1.114.89.578 2.421 1.79 7.072 1.79 7.072zm26.935 5.178l-5.963.012c-.875 0-1.4-.631-1.084-1.432l.941-2.365a1.197 1.197 0 011.078-.772h10.875c2.213 0 .424 3.032.178 3.649-1.418 3.574-7.549 10.494-16.502 10.494-7.22 0-11.1-5.336-8.458-11.993 2.508-6.319 9.845-11.178 16.775-11.178 3.807 0 6.588 1.394 8.229 4.146.355.621.203 1.136-.305 1.451l-3.135 1.729c-.705.32-1.178-.054-1.412-.517-.68-1.34-1.893-2.242-4.312-2.242-9.83 0-16.108 14.034-6.445 14.034 3.445.001 7.109-1.825 9.54-5.016zm12.674 4.595h11.785c.924 0 1.279.869.955 1.707l-.725 1.812c-.361.877-.83 1.025-1.168 1.025H120.24c-1.012 0-1.336-.529-1.354-1.064-.01-.252.17-.686.17-.686l2.926-7.377-.98-.002c-.934 0-1.449-.82-1.186-1.464l.959-2.408c.115-.292.551-.697 1.025-.697h1.596c.158 0 .49-.224.551-.378l2.98-7.508c.115-.292.711-.697 1.025-.697h16.008c1.238 0 1.354.947 1.125 1.615l-.668 1.735c-.4 1.125-.877 1.219-1.582 1.219h-11.922c-.156 0-.49.224-.551.377l-1.451 3.661h7.719c.9-.003 1.266.75.98 1.569l-.807 2.165c-.318.656-.754.811-1.109.811h-8.188c-.289 0-.5.152-.549.377l-1.668 4.208z"/></g></svg><svg viewBox="0 0 24 24" id="phone" xmlns="http://www.w3.org/2000/svg"><path d="M20 22.621l-3.521-6.795a618.8 618.8 0 01-2.064 1.011c-2.24 1.086-6.799-7.82-4.609-8.994l2.083-1.026L8.396 0 6.29 1.039c-7.202 3.755 4.233 25.982 11.6 22.615.121-.055 2.102-1.029 2.11-1.033z"/></svg><svg image-rendering="optimizeQuality" shape-rendering="geometricPrecision" text-rendering="geometricPrecision" viewBox="0 0 840.8 360.4" id="qiwi" xmlns="http://www.w3.org/2000/svg"><path d="M340 347.9c-1.6-4.4-4.5-7.4-6.6-11.3-5.1-6.7-11.1-12.5-17.1-18.3-2.1-.7-3-2.7-5-3.5-1.3-1.7-3.4-2.6-5.1-3.9-3.4-2.6-7.1-4.8-10.9-7-7.2-4.6-16.1-7.5-24.9-10.5-9.5-2.3-19.5-4-29.9-5.4-10.3-1.5-20.6-2.9-28.4-7-4.5-1.3-7.8-3.8-11.7-5.8-3.6-2.4-7.5-4.4-10.5-7.4-3.7-2.2-6-5.9-8.9-8.9-1-2-2.7-3.2-3.5-5.4-1-.4-1.3-1.6-1.9-2.3-.7-.8-.7-2.4-1.9-2.7-.6 4.1-.4 9 0 13.2.5 1.8.7 4 1.2 5.8.3 1.6 1.8 4.2 1.2 5.4-31.2-1.6-54-11.5-73.8-24.5-9.8-6.5-18.2-14.4-26-22.9-3.4-4.7-7.1-9.2-10.1-14.4-3.1-5.1-5.7-10.9-8.5-16.3-4.6-11.7-8.9-23.7-10.5-38.4-2.1-13.7-1.6-31.2 1.5-43.9 1.1-7 3.4-12.9 5.4-19 1.3-2.8 2.7-5.6 3.9-8.5 1.7-2.4 2.6-5.7 4.7-7.8 5.7-10.7 14.2-18.7 22.9-26.4 9.4-6.9 20.1-12.5 33-15.9 12.4-2.8 29.3-3.3 42.7-.4 27.2 5.6 47.7 17.8 64.9 33.4 17.4 15.3 30.8 34.7 40 58.3 9.5 22.4 12.8 57.3 4.3 82.7-3.5-2-7-3.9-10.5-5.8-4.2-1.2-8.3-2.6-13.2-3.1-5.9-.1-11.7 0-15.5 1.9 7.7-.8 13.9 1.3 18.7 3.1 2.8 1.1 4.4 1.8 6.6 3.1 4.3 2.5 8.1 4.8 11.3 8.2 9.1 8 15.6 18.6 18.7 32.6 0 .4.5.3.4-.4.4-.1.6-.4.8-.8.5-.6 1.1-1.2 1.6-1.9 1-1.2 2-2.4 2.7-3.9 2.1-2.5 3.8-5.3 5.4-8.2 3.7-5.4 6.5-11.6 9.7-17.5 5.5-12.6 10-26.2 12.8-41.6 5.6-34.2-1.1-66.6-12.8-90.5-12-24.1-28.8-43.4-50.5-57.9-21.9-14.4-47.5-25-82.7-26-.2-.7-.5.1-1.2 0-18.6-.6-33.6 2-48.5 5.8-6.9 2.3-14.1 4.3-20.2 7.4-7 2.3-12.6 6.1-19 8.9-2.3 2.2-5.8 3.3-8.2 5.4-3.1 1.5-5.4 3.9-8.5 5.4-5 4.4-10.3 8.3-15.2 12.8-4.8 4.4-9 9.4-13.6 14-.7 1.6-1.9 2.7-3.1 3.9-.8 1.5-1.8 2.8-3.1 3.9-.5 1.8-2.1 2.5-2.7 4.3-1.3 1-1.6 3-3.1 3.9-1.3 3.2-3.6 5.5-5.1 8.5-1.8 2.9-3.2 6.1-5 8.9-2.8 6.5-5.8 12.8-8.1 19.8-2.4 6.8-4.4 14-5.8 21.8-1.5 7.3-2.9 16.8-2.7 24.5-1 2.8-.2 8 0 11.3 0 .6-.4.8-.4 1.2 0 3.7 1 8.2 1.2 10.5.8 8.5 2.3 16.4 4.7 23.3 1.5 7.7 4.7 13.7 7 20.6 3.5 5.8 5.9 12.7 10.1 17.9 3.1 6.1 7.5 10.9 11.7 15.9 4.5 4.8 9 9.7 14.4 13.6 9.9 8.6 21.5 15.5 34.2 21.4 23.7 11.5 59.1 19 90.9 17.1 8.1-1.1 16.3-2.1 23.7-3.9 6.8-2.5 14.7-4 22.9-5 18.7-1.2 34.9.5 49.3 4.7 14.6 3.9 27.2 9.8 38.1 17.5 5.8 3.4 10.6 7.8 15.5 12 5 4.3 9 9.6 13.6 14.4.6 1.8 1.8 3.1 2.7 4.7 1.2 1.3.6 4.3 3.5 3.9 1.8-1.8-.3-4.4-.4-6.6-1.8-1.9-2.2-4.4-3.6-6z" fill="#fcb316"/><path d="M267.4 241.5c-.4 0-.5.3-.8.4-.7 1.5-.4 3.9 0 5.4 2.1 4.3 2.8 9.9 7.4 11.7 2.2-.7 2-3.9 1.9-7-1-3.8-2.4-7.2-4.7-9.7-1.6-.6-2.7-1.6-3.8-.8zm-27.2 10.9c0-.2-.3-.4-.4 0-3.8-.5-5.1 1.6-7 3.1-3.3 8.7 2 17.2 11.3 17.1 3.7-.9 6-3.3 6.6-7.4-.5-7.3-3.6-12-10.5-12.8z" fill="#fcb316"/><path d="M464.4 224.7c1.5 6.3 4.7 10.8 8.3 15s7.8 7.7 12.9 10.3c4.8 3 10 5.5 16 7.2 2.9 1 5.7 2.2 9.3 2.6 2.5 1.4 5.5 2.1 5.7 5.7-.1 4.3-3 5.9-6.7 6.7-3.7-.8-8.3-.7-11.4-2.1-7.8-.9-14.1-3.4-20.7-5.7-12.6-4.9-23.2-12-32-20.7-1.8-3-4.3-5.4-6.2-8.3s-3.2-6.4-5.2-9.3c-15.4-2-25.9-9-35.1-17.1-8.5-9.7-15.3-21.3-18.1-36.7-3.3-14.8-2.3-33.3 1.6-47.6 8.5-27.7 26.3-46.1 59.9-48.6 9.3.3 17.4 1.4 24.8 4.2 7.5 2.7 14.6 7.7 20.2 12.9.5.4.7.5 1 1 1.2 1.7 4.1 4.1 5.7 6.2.3.4.2 1.1.5 1.6.6.9 1.5 1.3 2.1 2.1.3.5.2 1.1.5 1.5.4.6.9 1.5 1.5 2.6.2.4.9.7 1 1 .9 1.7 1.3 3.8 2.1 5.7.8 2 1.9 3.7 2.6 5.7 2 5.9 3.3 12.9 4.1 20.1 2 20.8-2.1 39.4-9.8 53.2-3.6 7.2-8.6 13.1-14.5 18.1-5.4 5.7-12.8 9.1-20.1 12.7zM439.6 94.5c-4.5.3-7.2 2.4-10.9 3.6-2.4 2.2-5.4 3.9-7.2 6.7-3 1.7-3.8 5.5-6.2 7.7-2 5-3.9 10.6-5.2 17.1-1.2 6.4-2 13.6-2.1 20.7-.1 17.8 3.7 35.5 10.8 46 4.2 5.1 9.3 9.3 15.5 12.4 3.6.3 6.4 1.5 10.3 1.6 2.2-.8 5.8 0 7.2-1.6 3.2.2 3.9-1.9 6.7-2.1 1.5-1.5 3.1-2.7 5.2-3.6 1.9-2.1 3.7-4.2 5.7-6.2 1-1.5 1.6-3.6 3.1-4.7 9-17.2 10-48.7 4.1-68.7-2.2-7.3-5.3-13.2-8.8-18.1-3.8-3.9-8.3-7.2-13.4-9.8-4.1-.9-8-2-13.4-1.5-.3 0-.6.1-.5.5h-.9zM548.7 80c8.1.3 17.6-.7 24.8.5 1.6 2.5 1 5.5 1 8.3.6 37.9 0 78.6 0 117.3 0 3.1.1 6.3 0 9.3-.1 2.6.6 5.4-1 7.8-3.6.9-8.8.5-13.4.5-4.9 0-9.7.7-12.9-1-.9-45.8-.9-95.2 0-141.1.2-.8.7-1.3 1.5-1.6zm62 0H635c2.2 3 2.9 7.5 3.6 11.9 7.3 27.8 14.5 55.7 21.2 84.2 1.6.2 1.1-1.7 1.6-2.6.7-.7.3-2.4 1-3.1.3-2.3 1.7-3.5 1.6-6.2 1.8-3.5 2.4-8.3 4.1-11.9 2.1-8.4 4.9-16.2 7.3-24.3 2.3-8.4 5.4-16 7.2-24.8 3.4-7.1 4.2-16.8 8.3-23.2h10.3c3.7 7 5.1 16.3 8.3 23.8 2.1 8.4 5 16 7.2 24.3 5.1 16.1 10.4 32 15 48.6 2.1-3.1 2.1-8.3 3.6-11.9.9-4.1 1.7-8.3 3.1-11.9 4-16.4 7.8-32.9 12.4-48.6 1.7-8.2 3.4-16.6 6.2-23.8 6-.9 15.2-.9 21.2 0 .5 6.1-2.3 12.7-4.1 18.1-1 6.6-3.4 11.7-4.7 18.1-3.7 11.7-6.5 24.1-10.3 35.7-2.9 12.4-6.8 23.8-9.8 36.2-2 5.7-3.4 12-5.2 18.1-2 5.6-2.7 12.5-5.7 17.1h-14.5c-3.7-6.5-5-15.3-8.3-22.2-7.2-22.8-15.2-44.7-22.2-67.7-2.4 2.5-2.4 7.6-4.1 10.8-1.1 3.9-2.2 7.8-3.6 11.4-2 7.9-5 14.6-6.7 22.7-2.9 7.1-5 15-7.2 22.8-3 6.8-4.1 15.5-7.8 21.7-3.8 1.2-9.8.2-14.5.5-3.6-4.1-4-11.5-6.2-17.1-1.7-5.8-2.9-12.2-5.1-17.6-2.8-12.6-7-23.7-9.8-36.2-3.7-11.6-6.9-23.7-10.3-35.7-1.9-5.7-3.3-11.8-5.2-17.6-.9-6.2-5.1-11.8-3.6-18.6.2-.5.8-.8 1.4-1zm204.1 0c8.1.3 17.5-.7 24.8.5 1.8 5.4 1 11.2 1 17V206c0 5.9.7 11.6-1 17.1-5.6.6-13.8.9-20.7.5-2-.1-4.4.5-5.7-1-1.8-5.4-1-11.1-1-17.1V98.1c0-6.5-.6-12.8 1-17.1.4-.5 1-.8 1.6-1z" fill="#0269b3"/></svg><svg viewBox="0 0 24 24" id="quotes" xmlns="http://www.w3.org/2000/svg"><path d="M9.983 3v7.391C9.983 16.095 6.252 19.961 1 21l-.995-2.151C2.437 17.932 4 15.211 4 13H0V3h9.983zM24 3v7.391c0 5.704-3.748 9.571-9 10.609l-.996-2.151C16.437 17.932 18 15.211 18 13h-3.983V3H24z"/></svg><svg viewBox="0 0 24 24" id="reddit" xmlns="http://www.w3.org/2000/svg"><path d="M14.238 15.348a.215.215 0 010 .306c-.465.462-1.194.687-2.231.687l-.008-.002-.008.002c-1.036 0-1.766-.225-2.231-.688a.214.214 0 010-.305.219.219 0 01.307 0c.379.377 1.008.561 1.924.561l.008.002.008-.002c.915 0 1.544-.184 1.924-.561a.219.219 0 01.307 0zm-3.44-2.418a.922.922 0 00-1.845 0c0 .506.414.918.923.918a.92.92 0 00.922-.918zM24 12c0 6.627-5.373 12-12 12S0 18.627 0 12 5.373 0 12 0s12 5.373 12 12zm-5-.129a1.548 1.548 0 00-2.624-1.108c-1.056-.695-2.485-1.137-4.066-1.194l.865-2.724 2.343.549-.003.034c0 .696.569 1.262 1.268 1.262.699 0 1.267-.566 1.267-1.262a1.266 1.266 0 00-2.446-.458l-2.525-.592a.216.216 0 00-.257.145l-.965 3.038c-1.656.02-3.155.466-4.258 1.181A1.546 1.546 0 005 11.871c0 .566.311 1.056.768 1.325-.03.164-.05.331-.05.5 0 2.281 2.805 4.137 6.253 4.137s6.253-1.856 6.253-4.137c0-.16-.017-.317-.044-.472.486-.261.82-.766.82-1.353zm-4.872.141a.921.921 0 00-.922.919.921.921 0 001.844 0 .921.921 0 00-.922-.919z"/></svg><svg viewBox="0 0 24 24" id="registration" xmlns="http://www.w3.org/2000/svg"><path d="M12 0C5.373 0 0 5.373 0 12s5.373 12 12 12 12-5.373 12-12S18.627 0 12 0zm7.753 18.305c-.261-.586-.789-.991-1.871-1.241-2.293-.529-4.428-.993-3.393-2.945C17.634 8.177 15.322 5 12 5c-3.388 0-5.644 3.299-2.489 9.119 1.066 1.964-1.148 2.427-3.393 2.945-1.084.25-1.608.658-1.867 1.246A9.954 9.954 0 012 12C2 6.486 6.486 2 12 2s10 4.486 10 10a9.956 9.956 0 01-2.247 6.305z"/></svg><svg viewBox="0 0 24 24" id="remove" xmlns="http://www.w3.org/2000/svg"><path d="M23.954 21.03l-9.184-9.095 9.092-9.174L21.03-.046l-9.09 9.179L2.764.045l-2.81 2.81L9.14 11.96.045 21.144l2.81 2.81 9.112-9.192 9.18 9.1z"/></svg><svg viewBox="0 0 24 24" id="search" xmlns="http://www.w3.org/2000/svg"><path d="M23.111 20.058l-4.977-4.977a9.767 9.767 0 001.523-5.251c0-5.42-4.409-9.83-9.829-9.83C4.408 0 0 4.41 0 9.83s4.408 9.83 9.829 9.83a9.764 9.764 0 005.022-1.383l5.021 5.021c2.144 2.141 5.384-1.096 3.239-3.24zM3.047 9.83c0-3.739 3.043-6.782 6.782-6.782s6.782 3.042 6.782 6.782-3.043 6.782-6.782 6.782-6.782-3.043-6.782-6.782zm2.01-1.764c1.984-4.599 8.664-4.066 9.922.749a7.002 7.002 0 00-9.922-.749z"/></svg><svg viewBox="0 0 24 24" id="snapchat" xmlns="http://www.w3.org/2000/svg"><path d="M12 0C5.373 0 0 5.373 0 12s5.373 12 12 12 12-5.373 12-12S18.627 0 12 0zm5.126 16.475c-.057.077-.103.4-.178.655-.086.295-.356.262-.656.203a3.443 3.443 0 00-1.281-.034c-.785.131-1.601 1.292-2.969 1.292-1.472 0-2.238-1.156-3.054-1.292-.832-.138-1.31.084-1.597.084-.221 0-.307-.135-.34-.247-.074-.251-.12-.581-.178-.66-.565-.087-1.84-.309-1.873-.878a.29.29 0 01.243-.303c1.872-.308 3.063-2.419 2.869-2.877-.138-.325-.735-.442-.986-.541-.648-.256-.739-.55-.7-.752.053-.28.395-.468.68-.468.275 0 .76.367 1.138.158-.055-.982-.194-2.387.156-3.171.667-1.496 2.129-2.236 3.592-2.236 1.473 0 2.946.75 3.608 2.235.349.783.212 2.181.156 3.172.357.197.799-.167 1.107-.167.302 0 .712.204.719.545.005.267-.233.497-.708.684-.255.101-.848.217-.986.541-.198.468 1.03 2.573 2.869 2.876a.29.29 0 01.243.303c-.033.569-1.314.791-1.874.878z"/></svg><svg viewBox="0 0 24 24" id="tools" xmlns="http://www.w3.org/2000/svg"><path d="M23.27 19.743L11.324 7.798a2.706 2.706 0 01-.783-2.115 5.278 5.278 0 00-1.529-4.146A5.248 5.248 0 005.289 0c-.507 0-1.015.072-1.505.216l3.17 3.17c.344 1.589-1.959 3.918-3.567 3.567L.218 3.783C.073 4.275 0 4.783 0 5.292a5.264 5.264 0 005.684 5.251 2.698 2.698 0 012.113.783L19.743 23.27a2.494 2.494 0 003.527-3.527zM21.5 22.5a1 1 0 110-2 1 1 0 010 2zM13.565 7.211l5.327-5.318a2.98 2.98 0 012.113-.877c.764 0 1.529.292 2.113.877a2.99 2.99 0 01.009 4.235l-5.326 5.318-1.039-1.039 5.067-5.059a.43.43 0 00-.001-.609.43.43 0 00-.61-.001L16.15 9.796l-.89-.89 5.067-5.059a.432.432 0 00-.611-.611l-5.067 5.058-1.084-1.083zm-3.53 9.18l-5.227 5.185a3.276 3.276 0 00-.574.774l-.301.58-2.1 1.07L1 23.166l1.025-2.146.58-.302a3.22 3.22 0 00.79-.558l5.227-5.185 1.413 1.416z"/></svg><svg viewBox="0 0 511.962 511.962" id="trash" xmlns="http://www.w3.org/2000/svg"><path d="M456.6 68.248l-5.101-19.937c-5.809-22.705-29.664-36.871-52.4-31.05l-80.524 20.601-2.914-11.39C310.912 7.911 291.373-3.69 272.79 1.069l-82.62 21.136c-18.562 4.749-30.16 24.287-25.405 42.871l2.914 11.39-39.116 10.007c-5.351 1.368-8.578 6.815-7.209 12.166s6.816 8.579 12.167 7.209l180.323-46.132 90.213-23.08c12.176-3.111 24.96 4.486 28.067 16.632l2.622 10.249-356.645 91.241s-3-11.937-3.128-12.87c-.751-5.473-5.797-9.296-11.267-8.548-5.472.751-9.298 5.796-8.547 11.267.229 1.673 6.045 24.796 6.045 24.796 1.156 4.52 5.222 7.523 9.681 7.523.821 0 28.747-7.033 28.747-7.033l26.191 266.996c1.804 18.578 17.152 32.612 35.775 32.795v32.278c0 5.522 4.477 10 10 10h203.266c5.523 0 10-4.478 10-10v-32.278c18.623-.184 33.971-14.217 35.774-32.785l13.489-137.478c.54-5.496-3.479-10.39-8.976-10.929-5.492-.529-10.39 3.479-10.929 8.976l-13.49 137.487a16.254 16.254 0 01-16.237 14.737h-222.53a16.257 16.257 0 01-16.238-14.747l-26.492-270.068 4.947-1.265h303.173l-4.541 46.282c-.54 5.496 3.479 10.39 8.976 10.929 5.486.528 10.389-3.479 10.929-8.976l5.618-57.259c.564-5.743-4.165-10.977-9.952-10.977h-12.52l-2.339-4.859c-9.084-18.881-28.758-31.253-49.719-31.253-7.482 0-15.07.494-22.249-2.058l97.832-25.029c5.233-1.337 8.551-6.92 7.21-12.164zM185.794 48.575a15.14 15.14 0 019.332-6.994l82.62-21.137a15.143 15.143 0 0111.544 1.654 15.14 15.14 0 016.994 9.332l2.914 11.389-112.144 28.69-2.914-11.39a15.139 15.139 0 011.654-11.544zm179.07 443.387H181.598v-22.266h183.266zm8.943-364.461c11.82 0 23.158 6.175 29.561 16.109H202.455l106.016-27.089a35.276 35.276 0 0123.579 2.114v.001l8.188 3.781c10.789 4.982 21.99 5.084 33.569 5.084z"/><path d="M359.499 365.192c5.114-8.856 5.114-19.433 0-28.29l-18.076-31.308c-2.761-4.782-8.878-6.423-13.66-3.66-4.783 2.762-6.422 8.877-3.66 13.66l18.076 31.308c3.185 5.517-.917 12.435-7.179 12.435h-18.086l.389-.523c3.294-4.433 2.37-10.697-2.063-13.991-4.433-3.293-10.696-2.37-13.991 2.063l-12.25 16.487c-2.585 3.477-2.596 8.38-.04 11.874l12.08 16.486a9.986 9.986 0 008.075 4.091c2.051 0 4.121-.63 5.902-1.935 4.455-3.265 5.42-9.522 2.156-13.977l-.422-.576H335c10.227 0 19.385-5.288 24.499-14.144zM190.094 365.192c5.114 8.857 14.272 14.145 24.499 14.145h38.648c5.523 0 10-4.478 10-10s-4.477-10-10-10h-38.648c-6.261 0-10.363-6.918-7.178-12.435l9.348-16.191.174.405a10.002 10.002 0 009.197 6.065 9.972 9.972 0 003.933-.811c5.077-2.176 7.429-8.054 5.254-13.13l-8.039-18.766c-1.707-3.985-5.944-6.457-10.252-6.005l-20.455 2.181c-5.492.585-9.469 5.512-8.884 11.004.585 5.49 5.511 9.474 11.004 8.883l.903-.096-9.503 16.461c-5.115 8.857-5.115 19.433-.001 28.29zM280.889 267.801c-.895 5.45 2.797 10.593 8.248 11.488l20.145 3.308c4.292.701 8.701-1.569 10.613-5.495l9.117-18.344c2.458-4.945.441-10.947-4.504-13.405-4.947-2.46-10.948-.441-13.406 4.505l-.859 1.729-10.947-18.961c-10.693-18.52-38.3-18.528-48.998 0l-19.191 33.24c-2.762 4.783-1.123 10.898 3.66 13.66 4.784 2.763 10.899 1.124 13.66-3.66l19.191-33.24c3.154-5.462 11.204-5.462 14.357 0l9.729 16.851c-5.193-.496-9.957 3.099-10.815 8.324zM437.741 250.482c-2.095-5.024-8.021-7.502-13.06-5.41-5.033 2.089-7.495 8.024-5.41 13.061 2.083 5.031 8.027 7.501 13.06 5.41 5.024-2.088 7.505-8.027 5.41-13.061z"/><g><path d="M98.865 102.927c-2.095-5.024-8.021-7.502-13.06-5.41-5.033 2.089-7.495 8.024-5.41 13.061 2.083 5.031 8.027 7.501 13.06 5.41 5.024-2.088 7.505-8.027 5.41-13.061z"/></g></svg><svg viewBox="0 0 24 24" id="twitch" xmlns="http://www.w3.org/2000/svg"><path d="M12 2c5.514 0 10 4.486 10 10s-4.486 10-10 10S2 17.514 2 12 6.486 2 12 2zm0-2C5.373 0 0 5.373 0 12s5.373 12 12 12 12-5.373 12-12S18.627 0 12 0zM7.075 7l-.806 2.06v8.418h2.866V19h1.612l1.522-1.522h2.328l3.134-3.134V7H7.075zm9.582 6.806l-1.791 1.791H12l-1.522 1.522v-1.522H8.06V8.075h8.597v5.731zm-1.791-3.672v3.131h-1.075v-3.131h1.075zm-2.866 0v3.131h-1.075v-3.131H12z"/></svg><svg viewBox="0 0 24 24" id="view" xmlns="http://www.w3.org/2000/svg"><path d="M6 6H0V0h6v6zm9-6H9v6h6V0zm9 0h-6v6h6V0zM6 9H0v6h6V9zm9 0H9v6h6V9zm9 0h-6v6h6V9zM6 18H0v6h6v-6zm9 0H9v6h6v-6zm9 0h-6v6h6v-6z"/></svg><svg viewBox="0 0 3072 1919" id="visa" xmlns="http://www.w3.org/2000/svg"><path d="M17.981 14.58h3037.56v1890.698H17.98z" fill="#fff" fill-rule="evenodd" stroke="#0061b2" stroke-width="32"/><path d="M120.569 132.887H2934.12v397.72H120.57z" fill="#0061b2" fill-rule="evenodd"/><path d="M120.569 1389.736H2934.12v397.72H120.57z" fill="#fdb827" fill-rule="evenodd"/><path d="M588.281 631.781l.031.188H472.656v19.656c90.263 2.872 117.212 45.341 127.188 94.781l53.218 527.75h175.125l374.157-642.375h-175.125l-224.875 386.094-38.938-386.094zM1295.617 631.4h169.97L1257.132 1274.4h-169.97zM2232.063 644.219l-328.72 630.187h184.407l47.969-96.219h214.062l7.344 96.22h169.969L2479 644.218h-246.938zm89.312 161.718l20.344 266.438H2188.5z" fill="#0061b2" fill-rule="evenodd"/><path d="M1507.277 794.956c25.505-101.96 109.229-171.573 251.747-171.573 133.502 0 232.505 83.382 232.505 83.382l-101.02 105.83s-74.672-57.726-118.657-57.726c-58.159 0-84.422 21.237-89.795 56.122-10.714 69.56 237.142 112.132 229.298 274.196-5.238 108.23-117.255 213.264-245.333 213.264-192.057 0-287.024-76.967-287.024-76.967l86.588-123.469s86.794 69.524 168.366 65.743c55.034-2.55 97.451-23.641 94.606-60.932-6.45-84.525-267.447-123.323-221.281-307.87z" fill="#0061b2"/><path d="M2547.205 644.198c-5.932 0-11.744 1.523-17.395 4.569-5.651 3.046-10.044 7.429-13.213 13.099-3.17 5.67-4.753 11.577-4.753 17.732 0 6.092 1.567 11.949 4.69 17.572 3.121 5.623 7.481 9.99 13.085 13.099 5.605 3.108 11.467 4.665 17.586 4.665 6.12 0 11.981-1.557 17.586-4.665 5.604-3.108 9.948-7.476 13.054-13.1 3.107-5.622 4.658-11.48 4.658-17.571 0-6.155-1.568-12.062-4.721-17.732-3.154-5.67-7.562-10.053-13.213-13.1-5.651-3.045-11.432-4.568-17.364-4.568zm0 5.879c4.933 0 9.734 1.256 14.449 3.802 4.714 2.546 8.388 6.193 11.026 10.926 2.639 4.733 3.961 9.67 3.961 14.793 0 5.092-1.274 9.962-3.866 14.633-2.591 4.67-6.248 8.318-10.931 10.926-4.683 2.609-9.55 3.898-14.639 3.898-5.089 0-9.987-1.29-14.67-3.898-4.684-2.608-8.325-6.256-10.932-10.926-2.607-4.671-3.897-9.54-3.897-14.633 0-5.124 1.306-10.06 3.96-14.793 2.654-4.733 6.328-8.38 11.027-10.926 4.699-2.546 9.548-3.802 14.512-3.802z" style="text-align:start" font-size="60" font-weight="400" fill="#0061b2" font-family="Arial"/><path d="M2532.572 660.115v41.689h6.175v-17.712h3.628c2.164 0 3.805.477 4.934 1.435 1.63 1.301 3.795 4.563 6.461 9.731l3.374 6.546h7.511l-4.647-8.156c-2.226-3.867-4.096-6.618-5.633-8.26-.816-.856-1.898-1.59-3.247-2.206 3.293-.274 5.934-1.556 7.925-3.815 1.992-2.259 2.992-4.9 2.993-7.946 0-2.156-.623-4.174-1.815-6.09-1.192-1.917-2.767-3.29-4.774-4.06-2.007-.77-5.255-1.156-9.74-1.156h-13.145zm6.175 5.67h7.002c3.011 0 5.093.222 6.207.7a5.747 5.747 0 012.61 2.206c.627.975.923 2.058.923 3.29 0 1.917-.64 3.457-1.942 4.62-1.301 1.164-3.745 1.75-7.32 1.75h-7.48v-12.565zM2873.127 1692.395c-5.932 0-11.745 1.523-17.396 4.569-5.65 3.046-10.044 7.429-13.213 13.099-3.169 5.67-4.752 11.577-4.752 17.732 0 6.091 1.567 11.948 4.69 17.572 3.121 5.623 7.481 9.99 13.085 13.099 5.604 3.108 11.466 4.664 17.586 4.664 6.12 0 11.981-1.556 17.585-4.664 5.605-3.109 9.948-7.476 13.055-13.1 3.106-5.623 4.658-11.48 4.658-17.571 0-6.155-1.568-12.062-4.721-17.732-3.154-5.67-7.562-10.053-13.213-13.1-5.651-3.045-11.432-4.568-17.364-4.568zm0 5.879c4.933 0 9.734 1.256 14.449 3.802 4.714 2.546 8.388 6.193 11.026 10.926 2.638 4.733 3.96 9.67 3.96 14.793 0 5.092-1.273 9.962-3.865 14.632-2.591 4.67-6.248 8.318-10.931 10.927-4.684 2.608-9.55 3.898-14.64 3.898-5.088 0-9.987-1.29-14.67-3.898-4.683-2.609-8.324-6.256-10.931-10.927-2.607-4.67-3.898-9.54-3.898-14.632 0-5.124 1.307-10.06 3.961-14.793 2.654-4.733 6.328-8.38 11.027-10.927 4.699-2.546 9.548-3.801 14.512-3.801z" style="text-align:start" font-size="60" font-weight="400" fill="#0061b2" font-family="Arial"/><path style="text-align:start" d="M2858.494 1708.312V1750h6.175v-17.712h3.628c2.164 0 3.805.477 4.934 1.435 1.63 1.3 3.795 4.563 6.46 9.731l3.375 6.546h7.511l-4.647-8.156c-2.226-3.868-4.097-6.618-5.633-8.26-.816-.856-1.898-1.59-3.247-2.206 3.293-.274 5.934-1.556 7.925-3.815 1.992-2.26 2.992-4.9 2.992-7.946 0-2.156-.622-4.174-1.814-6.09-1.192-1.917-2.767-3.29-4.774-4.061-2.007-.77-5.255-1.155-9.74-1.155h-13.145zm6.175 5.67h7.002c3.01 0 5.093.221 6.207.7a5.747 5.747 0 012.61 2.206c.627.975.923 2.058.923 3.29 0 1.917-.64 3.457-1.942 4.62-1.302 1.164-3.745 1.75-7.32 1.75h-7.48v-12.566z" font-size="60" font-weight="400" fill="#0061b2" font-family="Arial"/></svg></svg>